<svg version="1.1" viewBox="0.0 0.0 923.9711286089239 564.8425196850394" fill="none" stroke="none" stroke-linecap="square" stroke-miterlimit="10" xmlns:xlink="http://www.w3.org/1999/xlink" xmlns="http://www.w3.org/2000/svg"><clipPath id="p.0"><path d="m0 0l923.9711 0l0 564.8425l-923.9711 0l0 -564.8425z" clip-rule="nonzero"/></clipPath><g clip-path="url(#p.0)"><path fill="#ffffff" d="m0 0l923.9711 0l0 564.8425l-923.9711 0z" fill-rule="evenodd"/><path fill="#000000" fill-opacity="0.0" d="m0.87139106 26.149607l923.9685 0l0 58.3937l-923.9685 0z" fill-rule="evenodd"/><path fill="#000000" d="m302.25632 48.163353l2.609375 0.828125q-0.59375 2.1875 -2.0 3.25q-1.390625 1.0625 -3.546875 1.0625q-2.65625 0 -4.375 -1.8125q-1.703125 -1.828125 -1.703125 -4.984375q0 -3.328125 1.71875 -5.171875q1.71875 -1.84375 4.515625 -1.84375q2.453125 0 3.984375 1.4375q0.921875 0.859375 1.375 2.46875l-2.671875 0.640625q-0.234375 -1.046875 -0.984375 -1.640625q-0.75 -0.609375 -1.828125 -0.609375q-1.484375 0 -2.421875 1.078125q-0.921875 1.0625 -0.921875 3.4375q0 2.53125 0.90625 3.609375q0.921875 1.078125 2.375 1.078125q1.078125 0 1.84375 -0.671875q0.78125 -0.6875 1.125 -2.15625zm4.926056 4.90625l0 -13.359375l5.6875 0q2.140625 0 3.109375 0.359375q0.96875 0.359375 1.546875 1.28125q0.578125 0.921875 0.578125 2.109375q0 1.5 -0.890625 2.484375q-0.875 0.96875 -2.625 1.234375q0.875 0.5 1.4375 1.125q0.578125 0.609375 1.53125 2.15625l1.640625 2.609375l-3.234375 0l-1.9375 -2.90625q-1.046875 -1.5625 -1.4375 -1.96875q-0.375 -0.40625 -0.8125 -0.546875q-0.421875 -0.15625 -1.34375 -0.15625l-0.546875 0l0 5.578125l-2.703125 0zm2.703125 -7.703125l2.0 0q1.9375 0 2.421875 -0.15625q0.484375 -0.171875 0.75 -0.578125q0.28125 -0.40625 0.28125 -1.0q0 -0.671875 -0.359375 -1.078125q-0.359375 -0.421875 -1.015625 -0.53125q-0.328125 -0.046875 -1.96875 -0.046875l-2.109375 0l0 3.390625zm13.577148 7.703125l0 -5.625l-4.890625 -7.734375l3.171875 0l3.140625 5.28125l3.078125 -5.28125l3.109375 0l-4.921875 7.75l0 5.609375l-2.6875 0zm8.9435425 0l0 -13.359375l4.328125 0q2.453125 0 3.203125 0.203125q1.140625 0.296875 1.921875 1.3125q0.78125 1.0 0.78125 2.59375q0 1.234375 -0.453125 2.078125q-0.453125 0.828125 -1.140625 1.3125q-0.6875 0.46875 -1.390625 0.625q-0.96875 0.203125 -2.796875 0.203125l-1.765625 0l0 5.03125l-2.6875 0zm2.6875 -11.09375l0 3.78125l1.484375 0q1.59375 0 2.125 -0.203125q0.546875 -0.203125 0.84375 -0.65625q0.3125 -0.453125 0.3125 -1.03125q0 -0.734375 -0.4375 -1.203125q-0.421875 -0.484375 -1.078125 -0.59375q-0.484375 -0.09375 -1.9375 -0.09375l-1.3125 0zm12.7561035 11.09375l0 -11.09375l-3.953125 0l0 -2.265625l10.609375 0l0 2.265625l-3.953125 0l0 11.09375l-2.703125 0zm7.511841 -6.59375q0 -2.046875 0.609375 -3.421875q0.453125 -1.03125 1.234375 -1.828125q0.796875 -0.8125 1.734375 -1.203125q1.25 -0.53125 2.875 -0.53125q2.953125 0 4.71875 1.828125q1.78125 1.828125 1.78125 5.09375q0 3.234375 -1.765625 5.0625q-1.75 1.828125 -4.6875 1.828125q-2.984375 0 -4.75 -1.8125q-1.75 -1.828125 -1.75 -5.015625zm2.78125 -0.09375q0 2.265625 1.046875 3.4375q1.046875 1.171875 2.65625 1.171875q1.609375 0 2.640625 -1.15625q1.046875 -1.171875 1.046875 -3.484375q0 -2.296875 -1.015625 -3.421875q-1.0 -1.140625 -2.671875 -1.140625q-1.671875 0 -2.6875 1.15625q-1.015625 1.140625 -1.015625 3.4375zm19.351013 6.6875l-3.1875 -13.359375l2.765625 0l2.015625 9.171875l2.4375 -9.171875l3.203125 0l2.34375 9.328125l2.046875 -9.328125l2.71875 0l-3.25 13.359375l-2.859375 0l-2.65625 -9.984375l-2.65625 9.984375l-2.921875 0zm26.734924 0l-2.9375 0l-1.171875 -3.03125l-5.328125 0l-1.109375 3.03125l-2.859375 0l5.203125 -13.359375l2.84375 0l5.359375 13.359375zm-4.96875 -5.28125l-1.84375 -4.953125l-1.796875 4.953125l3.640625 0zm6.4729614 5.28125l0 -13.25l2.6875 0l0 11.0l6.703125 0l0 2.25l-9.390625 0zm11.395996 0l0 -13.25l2.6875 0l0 11.0l6.703125 0l0 2.25l-9.390625 0zm11.317841 0l0 -13.359375l9.90625 0l0 2.265625l-7.21875 0l0 2.953125l6.71875 0l0 2.25l-6.71875 0l0 3.640625l7.46875 0l0 2.25l-10.15625 0zm15.443573 0l0 -11.09375l-3.953125 0l0 -2.265625l10.609375 0l0 2.265625l-3.953125 0l0 11.09375l-2.703125 0zm12.891785 -4.34375l2.625 -0.25q0.234375 1.3125 0.953125 1.9375q0.734375 0.609375 1.96875 0.609375q1.296875 0 1.953125 -0.546875q0.671875 -0.546875 0.671875 -1.28125q0 -0.484375 -0.28125 -0.8125q-0.28125 -0.328125 -0.96875 -0.578125q-0.484375 -0.15625 -2.171875 -0.578125q-2.15625 -0.546875 -3.03125 -1.328125q-1.234375 -1.09375 -1.234375 -2.6875q0 -1.015625 0.578125 -1.90625q0.578125 -0.890625 1.65625 -1.34375q1.09375 -0.46875 2.640625 -0.46875q2.515625 0 3.78125 1.109375q1.28125 1.09375 1.34375 2.9375l-2.703125 0.109375q-0.171875 -1.03125 -0.75 -1.46875q-0.5625 -0.453125 -1.703125 -0.453125q-1.171875 0 -1.84375 0.46875q-0.421875 0.3125 -0.421875 0.84375q0 0.46875 0.40625 0.796875q0.5 0.4375 2.46875 0.90625q1.96875 0.453125 2.90625 0.953125q0.953125 0.5 1.484375 1.359375q0.53125 0.859375 0.53125 2.125q0 1.15625 -0.640625 2.15625q-0.640625 1.0 -1.8125 1.484375q-1.15625 0.484375 -2.890625 0.484375q-2.53125 0 -3.890625 -1.171875q-1.359375 -1.171875 -1.625 -3.40625zm16.131073 4.34375l0 -11.09375l-3.953125 0l0 -2.265625l10.609375 0l0 2.265625l-3.953125 0l0 11.09375l-2.703125 0zm19.057434 0l-2.9375 0l-1.171875 -3.03125l-5.328125 0l-1.109375 3.03125l-2.859375 0l5.203125 -13.359375l2.84375 0l5.359375 13.359375zm-4.96875 -5.28125l-1.84375 -4.953125l-1.796875 4.953125l3.640625 0zm8.009399 5.28125l0 -11.09375l-3.953125 0l0 -2.265625l10.609375 0l0 2.265625l-3.953125 0l0 11.09375l-2.703125 0zm8.380341 -13.359375l2.6875 0l0 7.234375q0 1.71875 0.109375 2.234375q0.171875 0.828125 0.8125 1.328125q0.65625 0.484375 1.78125 0.484375q1.15625 0 1.734375 -0.46875q0.59375 -0.46875 0.703125 -1.140625q0.125 -0.6875 0.125 -2.28125l0 -7.390625l2.6875 0l0 7.015625q0 2.40625 -0.21875 3.40625q-0.21875 0.984375 -0.8125 1.671875q-0.578125 0.6875 -1.5625 1.09375q-0.984375 0.40625 -2.5625 0.40625q-1.921875 0 -2.90625 -0.4375q-0.984375 -0.453125 -1.5625 -1.15625q-0.578125 -0.703125 -0.75 -1.484375q-0.265625 -1.140625 -0.265625 -3.390625l0 -7.125zm12.801086 9.015625l2.625 -0.25q0.234375 1.3125 0.953125 1.9375q0.734375 0.609375 1.96875 0.609375q1.296875 0 1.953125 -0.546875q0.671875 -0.546875 0.671875 -1.28125q0 -0.484375 -0.28125 -0.8125q-0.28125 -0.328125 -0.96875 -0.578125q-0.484375 -0.15625 -2.171875 -0.578125q-2.15625 -0.546875 -3.03125 -1.328125q-1.234375 -1.09375 -1.234375 -2.6875q0 -1.015625 0.578125 -1.90625q0.578125 -0.890625 1.65625 -1.34375q1.09375 -0.46875 2.640625 -0.46875q2.515625 0 3.78125 1.109375q1.28125 1.09375 1.34375 2.9375l-2.703125 0.109375q-0.171875 -1.03125 -0.75 -1.46875q-0.5625 -0.453125 -1.703125 -0.453125q-1.171875 0 -1.84375 0.46875q-0.421875 0.3125 -0.421875 0.84375q0 0.46875 0.40625 0.796875q0.5 0.4375 2.46875 0.90625q1.96875 0.453125 2.90625 0.953125q0.953125 0.5 1.484375 1.359375q0.53125 0.859375 0.53125 2.125q0 1.15625 -0.640625 2.15625q-0.640625 1.0 -1.8125 1.484375q-1.15625 0.484375 -2.890625 0.484375q-2.53125 0 -3.890625 -1.171875q-1.359375 -1.171875 -1.625 -3.40625zm17.767517 -2.25q0 -2.046875 0.609375 -3.421875q0.453125 -1.03125 1.234375 -1.828125q0.796875 -0.8125 1.734375 -1.203125q1.25 -0.53125 2.875 -0.53125q2.953125 0 4.71875 1.828125q1.78125 1.828125 1.78125 5.09375q0 3.234375 -1.765625 5.0625q-1.75 1.828125 -4.6875 1.828125q-2.984375 0 -4.75 -1.8125q-1.75 -1.828125 -1.75 -5.015625zm2.78125 -0.09375q0 2.265625 1.046875 3.4375q1.046875 1.171875 2.65625 1.171875q1.609375 0 2.640625 -1.15625q1.046875 -1.171875 1.046875 -3.484375q0 -2.296875 -1.015625 -3.421875q-1.0 -1.140625 -2.671875 -1.140625q-1.671875 0 -2.6875 1.15625q-1.015625 1.140625 -1.015625 3.4375zm15.683289 6.6875l-4.78125 -13.359375l2.9375 0l3.375 9.890625l3.265625 -9.890625l2.859375 0l-4.78125 13.359375l-2.875 0zm9.0373535 0l0 -13.359375l9.90625 0l0 2.265625l-7.21875 0l0 2.953125l6.71875 0l0 2.25l-6.71875 0l0 3.640625l7.46875 0l0 2.25l-10.15625 0zm12.4435425 0l0 -13.359375l5.6875 0q2.140625 0 3.109375 0.359375q0.96875 0.359375 1.546875 1.28125q0.578125 0.921875 0.578125 2.109375q0 1.5 -0.890625 2.484375q-0.875 0.96875 -2.625 1.234375q0.875 0.5 1.4375 1.125q0.578125 0.609375 1.53125 2.15625l1.640625 2.609375l-3.234375 0l-1.9375 -2.90625q-1.046875 -1.5625 -1.4375 -1.96875q-0.375 -0.40625 -0.8125 -0.546875q-0.421875 -0.15625 -1.34375 -0.15625l-0.546875 0l0 5.578125l-2.703125 0zm2.703125 -7.703125l2.0 0q1.9375 0 2.421875 -0.15625q0.484375 -0.171875 0.75 -0.578125q0.28125 -0.40625 0.28125 -1.0q0 -0.671875 -0.359375 -1.078125q-0.359375 -0.421875 -1.015625 -0.53125q-0.328125 -0.046875 -1.96875 -0.046875l-2.109375 0l0 3.390625zm13.838806 7.703125l-4.78125 -13.359375l2.9375 0l3.375 9.890625l3.265625 -9.890625l2.859375 0l-4.78125 13.359375l-2.875 0zm8.9592285 0l0 -13.359375l2.6875 0l0 13.359375l-2.6875 0zm5.2614746 0l0 -13.359375l9.90625 0l0 2.265625l-7.21875 0l0 2.953125l6.71875 0l0 2.25l-6.71875 0l0 3.640625l7.46875 0l0 2.25l-10.15625 0zm14.3341675 0l-3.1875 -13.359375l2.765625 0l2.015625 9.171875l2.4375 -9.171875l3.203125 0l2.34375 9.328125l2.046875 -9.328125l2.71875 0l-3.25 13.359375l-2.859375 0l-2.65625 -9.984375l-2.65625 9.984375l-2.921875 0z" fill-rule="nonzero"/><path fill="#000000" d="m340.2976 70.77273l1.65625 -0.140625q0.125 1.0 0.546875 1.640625q0.4375 0.640625 1.34375 1.046875q0.921875 0.390625 2.0625 0.390625q1.0 0 1.78125 -0.296875q0.78125 -0.296875 1.15625 -0.8125q0.375 -0.53125 0.375 -1.15625q0 -0.625 -0.375 -1.09375q-0.359375 -0.46875 -1.1875 -0.796875q-0.546875 -0.203125 -2.390625 -0.640625q-1.828125 -0.453125 -2.5625 -0.84375q-0.96875 -0.5 -1.4375 -1.234375q-0.46875 -0.75 -0.46875 -1.671875q0 -1.0 0.578125 -1.875q0.578125 -0.890625 1.671875 -1.34375q1.109375 -0.453125 2.453125 -0.453125q1.484375 0 2.609375 0.484375q1.140625 0.46875 1.75 1.40625q0.609375 0.921875 0.65625 2.09375l-1.6875 0.125q-0.140625 -1.265625 -0.9375 -1.90625q-0.78125 -0.65625 -2.3125 -0.65625q-1.609375 0 -2.34375 0.59375q-0.734375 0.59375 -0.734375 1.421875q0 0.71875 0.53125 1.171875q0.5 0.46875 2.65625 0.96875q2.15625 0.484375 2.953125 0.84375q1.171875 0.53125 1.71875 1.359375q0.5625 0.828125 0.5625 1.90625q0 1.0625 -0.609375 2.015625q-0.609375 0.9375 -1.75 1.46875q-1.140625 0.515625 -2.578125 0.515625q-1.8125 0 -3.046875 -0.53125q-1.21875 -0.53125 -1.921875 -1.59375q-0.6875 -1.0625 -0.71875 -2.40625zm19.146698 0.75l1.609375 0.21875q-0.265625 1.65625 -1.359375 2.609375q-1.078125 0.9375 -2.671875 0.9375q-1.984375 0 -3.1875 -1.296875q-1.203125 -1.296875 -1.203125 -3.71875q0 -1.578125 0.515625 -2.75q0.515625 -1.171875 1.578125 -1.75q1.0625 -0.59375 2.3125 -0.59375q1.578125 0 2.578125 0.796875q1.0 0.796875 1.28125 2.265625l-1.59375 0.234375q-0.234375 -0.96875 -0.8125 -1.453125q-0.578125 -0.5 -1.390625 -0.5q-1.234375 0 -2.015625 0.890625q-0.78125 0.890625 -0.78125 2.8125q0 1.953125 0.75 2.84375q0.75 0.875 1.953125 0.875q0.96875 0 1.609375 -0.59375q0.65625 -0.59375 0.828125 -1.828125zm3.0 3.546875l0 -9.671875l1.46875 0l0 1.46875q0.5625 -1.03125 1.03125 -1.359375q0.484375 -0.328125 1.0625 -0.328125q0.828125 0 1.6875 0.53125l-0.5625 1.515625q-0.609375 -0.359375 -1.203125 -0.359375q-0.546875 0 -0.96875 0.328125q-0.421875 0.328125 -0.609375 0.890625q-0.28125 0.875 -0.28125 1.921875l0 5.0625l-1.625 0zm12.540802 -1.1875q-0.921875 0.765625 -1.765625 1.09375q-0.828125 0.3125 -1.796875 0.3125q-1.59375 0 -2.453125 -0.78125q-0.859375 -0.78125 -0.859375 -1.984375q0 -0.71875 0.328125 -1.296875q0.328125 -0.59375 0.84375 -0.9375q0.53125 -0.359375 1.1875 -0.546875q0.46875 -0.125 1.453125 -0.25q1.984375 -0.234375 2.921875 -0.5625q0.015625 -0.34375 0.015625 -0.421875q0 -1.0 -0.46875 -1.421875q-0.625 -0.546875 -1.875 -0.546875q-1.15625 0 -1.703125 0.40625q-0.546875 0.40625 -0.8125 1.421875l-1.609375 -0.21875q0.21875 -1.015625 0.71875 -1.640625q0.5 -0.640625 1.453125 -0.984375q0.953125 -0.34375 2.1875 -0.34375q1.25 0 2.015625 0.296875q0.78125 0.28125 1.140625 0.734375q0.375 0.4375 0.515625 1.109375q0.078125 0.421875 0.078125 1.515625l0 2.1875q0 2.28125 0.109375 2.890625q0.109375 0.59375 0.40625 1.15625l-1.703125 0q-0.265625 -0.515625 -0.328125 -1.1875zm-0.140625 -3.671875q-0.890625 0.375 -2.671875 0.625q-1.015625 0.140625 -1.4375 0.328125q-0.421875 0.1875 -0.65625 0.53125q-0.21875 0.34375 -0.21875 0.78125q0 0.65625 0.5 1.09375q0.5 0.4375 1.453125 0.4375q0.9375 0 1.671875 -0.40625q0.75 -0.421875 1.09375 -1.140625q0.265625 -0.5625 0.265625 -1.640625l0 -0.609375zm4.2038574 8.5625l0 -13.375l1.484375 0l0 1.25q0.53125 -0.734375 1.1875 -1.09375q0.671875 -0.375 1.625 -0.375q1.234375 0 2.171875 0.640625q0.953125 0.625 1.4375 1.796875q0.484375 1.15625 0.484375 2.546875q0 1.484375 -0.53125 2.671875q-0.53125 1.1875 -1.546875 1.828125q-1.015625 0.625 -2.140625 0.625q-0.8125 0 -1.46875 -0.34375q-0.65625 -0.34375 -1.0625 -0.875l0 4.703125l-1.640625 0zm1.484375 -8.484375q0 1.859375 0.75 2.765625q0.765625 0.890625 1.828125 0.890625q1.09375 0 1.875 -0.921875q0.78125 -0.9375 0.78125 -2.875q0 -1.84375 -0.765625 -2.765625q-0.75 -0.921875 -1.8125 -0.921875q-1.046875 0 -1.859375 0.984375q-0.796875 0.96875 -0.796875 2.84375zm15.516327 1.671875l1.6875 0.203125q-0.40625 1.484375 -1.484375 2.3125q-1.078125 0.8125 -2.765625 0.8125q-2.125 0 -3.375 -1.296875q-1.234375 -1.3125 -1.234375 -3.671875q0 -2.453125 1.25 -3.796875q1.265625 -1.34375 3.265625 -1.34375q1.9375 0 3.15625 1.328125q1.234375 1.3125 1.234375 3.703125q0 0.15625 0 0.4375l-7.21875 0q0.09375 1.59375 0.90625 2.453125q0.8125 0.84375 2.015625 0.84375q0.90625 0 1.546875 -0.46875q0.640625 -0.484375 1.015625 -1.515625zm-5.390625 -2.65625l5.40625 0q-0.109375 -1.21875 -0.625 -1.828125q-0.78125 -0.953125 -2.03125 -0.953125q-1.125 0 -1.90625 0.765625q-0.765625 0.75 -0.84375 2.015625zm8.485077 2.875l1.625 -0.25q0.125 0.96875 0.75 1.5q0.625 0.515625 1.75 0.515625q1.125 0 1.671875 -0.453125q0.546875 -0.46875 0.546875 -1.09375q0 -0.546875 -0.484375 -0.875q-0.328125 -0.21875 -1.671875 -0.546875q-1.8125 -0.46875 -2.515625 -0.796875q-0.6875 -0.328125 -1.046875 -0.90625q-0.359375 -0.59375 -0.359375 -1.3125q0 -0.640625 0.296875 -1.1875q0.296875 -0.5625 0.8125 -0.921875q0.375 -0.28125 1.03125 -0.46875q0.671875 -0.203125 1.421875 -0.203125q1.140625 0 2.0 0.328125q0.859375 0.328125 1.265625 0.890625q0.421875 0.5625 0.578125 1.5l-1.609375 0.21875q-0.109375 -0.75 -0.640625 -1.171875q-0.515625 -0.421875 -1.46875 -0.421875q-1.140625 0 -1.625 0.375q-0.46875 0.375 -0.46875 0.875q0 0.3125 0.1875 0.578125q0.203125 0.265625 0.640625 0.4375q0.234375 0.09375 1.4375 0.421875q1.75 0.453125 2.4375 0.75q0.6875 0.296875 1.078125 0.859375q0.390625 0.5625 0.390625 1.40625q0 0.828125 -0.484375 1.546875q-0.46875 0.71875 -1.375 1.125q-0.90625 0.390625 -2.046875 0.390625q-1.875 0 -2.875 -0.78125q-0.984375 -0.78125 -1.25 -2.328125zm21.43332 2.890625l0 -1.21875q-0.90625 1.4375 -2.703125 1.4375q-1.15625 0 -2.125 -0.640625q-0.96875 -0.640625 -1.5 -1.78125q-0.53125 -1.140625 -0.53125 -2.625q0 -1.453125 0.484375 -2.625q0.484375 -1.1875 1.4375 -1.8125q0.96875 -0.625 2.171875 -0.625q0.875 0 1.546875 0.375q0.6875 0.359375 1.109375 0.953125l0 -4.796875l1.640625 0l0 13.359375l-1.53125 0zm-5.171875 -4.828125q0 1.859375 0.78125 2.78125q0.78125 0.921875 1.84375 0.921875q1.078125 0 1.828125 -0.875q0.75 -0.890625 0.75 -2.6875q0 -1.984375 -0.765625 -2.90625q-0.765625 -0.9375 -1.890625 -0.9375q-1.078125 0 -1.8125 0.890625q-0.734375 0.890625 -0.734375 2.8125zm15.594452 3.640625q-0.921875 0.765625 -1.765625 1.09375q-0.828125 0.3125 -1.796875 0.3125q-1.59375 0 -2.453125 -0.78125q-0.859375 -0.78125 -0.859375 -1.984375q0 -0.71875 0.328125 -1.296875q0.328125 -0.59375 0.84375 -0.9375q0.53125 -0.359375 1.1875 -0.546875q0.46875 -0.125 1.453125 -0.25q1.984375 -0.234375 2.921875 -0.5625q0.015625 -0.34375 0.015625 -0.421875q0 -1.0 -0.46875 -1.421875q-0.625 -0.546875 -1.875 -0.546875q-1.15625 0 -1.703125 0.40625q-0.546875 0.40625 -0.8125 1.421875l-1.609375 -0.21875q0.21875 -1.015625 0.71875 -1.640625q0.5 -0.640625 1.453125 -0.984375q0.953125 -0.34375 2.1875 -0.34375q1.25 0 2.015625 0.296875q0.78125 0.28125 1.140625 0.734375q0.375 0.4375 0.515625 1.109375q0.078125 0.421875 0.078125 1.515625l0 2.1875q0 2.28125 0.109375 2.890625q0.109375 0.59375 0.40625 1.15625l-1.703125 0q-0.265625 -0.515625 -0.328125 -1.1875zm-0.140625 -3.671875q-0.890625 0.375 -2.671875 0.625q-1.015625 0.140625 -1.4375 0.328125q-0.421875 0.1875 -0.65625 0.53125q-0.21875 0.34375 -0.21875 0.78125q0 0.65625 0.5 1.09375q0.5 0.4375 1.453125 0.4375q0.9375 0 1.671875 -0.40625q0.75 -0.421875 1.09375 -1.140625q0.265625 -0.5625 0.265625 -1.640625l0 -0.609375zm7.7819824 3.390625l0.234375 1.453125q-0.6875 0.140625 -1.234375 0.140625q-0.890625 0 -1.390625 -0.28125q-0.484375 -0.28125 -0.6875 -0.734375q-0.203125 -0.46875 -0.203125 -1.9375l0 -5.578125l-1.203125 0l0 -1.265625l1.203125 0l0 -2.390625l1.625 -0.984375l0 3.375l1.65625 0l0 1.265625l-1.65625 0l0 5.671875q0 0.6875 0.078125 0.890625q0.09375 0.203125 0.28125 0.328125q0.203125 0.109375 0.578125 0.109375q0.265625 0 0.71875 -0.0625zm7.9176636 0.28125q-0.921875 0.765625 -1.765625 1.09375q-0.828125 0.3125 -1.796875 0.3125q-1.59375 0 -2.453125 -0.78125q-0.859375 -0.78125 -0.859375 -1.984375q0 -0.71875 0.328125 -1.296875q0.328125 -0.59375 0.84375 -0.9375q0.53125 -0.359375 1.1875 -0.546875q0.46875 -0.125 1.453125 -0.25q1.984375 -0.234375 2.921875 -0.5625q0.015625 -0.34375 0.015625 -0.421875q0 -1.0 -0.46875 -1.421875q-0.625 -0.546875 -1.875 -0.546875q-1.15625 0 -1.703125 0.40625q-0.546875 0.40625 -0.8125 1.421875l-1.609375 -0.21875q0.21875 -1.015625 0.71875 -1.640625q0.5 -0.640625 1.453125 -0.984375q0.953125 -0.34375 2.1875 -0.34375q1.25 0 2.015625 0.296875q0.78125 0.28125 1.140625 0.734375q0.375 0.4375 0.515625 1.109375q0.078125 0.421875 0.078125 1.515625l0 2.1875q0 2.28125 0.109375 2.890625q0.109375 0.59375 0.40625 1.15625l-1.703125 0q-0.265625 -0.515625 -0.328125 -1.1875zm-0.140625 -3.671875q-0.890625 0.375 -2.671875 0.625q-1.015625 0.140625 -1.4375 0.328125q-0.421875 0.1875 -0.65625 0.53125q-0.21875 0.34375 -0.21875 0.78125q0 0.65625 0.5 1.09375q0.5 0.4375 1.453125 0.4375q0.9375 0 1.671875 -0.40625q0.75 -0.421875 1.09375 -1.140625q0.265625 -0.5625 0.265625 -1.640625l0 -0.609375zm16.012146 1.75l1.6875 0.203125q-0.40625 1.484375 -1.484375 2.3125q-1.078125 0.8125 -2.765625 0.8125q-2.125 0 -3.375 -1.296875q-1.234375 -1.3125 -1.234375 -3.671875q0 -2.453125 1.25 -3.796875q1.265625 -1.34375 3.265625 -1.34375q1.9375 0 3.15625 1.328125q1.234375 1.3125 1.234375 3.703125q0 0.15625 0 0.4375l-7.21875 0q0.09375 1.59375 0.90625 2.453125q0.8125 0.84375 2.015625 0.84375q0.90625 0 1.546875 -0.46875q0.640625 -0.484375 1.015625 -1.515625zm-5.390625 -2.65625l5.40625 0q-0.109375 -1.21875 -0.625 -1.828125q-0.78125 -0.953125 -2.03125 -0.953125q-1.125 0 -1.90625 0.765625q-0.765625 0.75 -0.84375 2.015625zm11.828857 5.765625l-3.6875 -9.671875l1.734375 0l2.078125 5.796875q0.328125 0.9375 0.625 1.9375q0.203125 -0.765625 0.609375 -1.828125l2.140625 -5.90625l1.6875 0l-3.65625 9.671875l-1.53125 0zm13.265625 -3.109375l1.6875 0.203125q-0.40625 1.484375 -1.484375 2.3125q-1.078125 0.8125 -2.765625 0.8125q-2.125 0 -3.375 -1.296875q-1.234375 -1.3125 -1.234375 -3.671875q0 -2.453125 1.25 -3.796875q1.265625 -1.34375 3.265625 -1.34375q1.9375 0 3.15625 1.328125q1.234375 1.3125 1.234375 3.703125q0 0.15625 0 0.4375l-7.21875 0q0.09375 1.59375 0.90625 2.453125q0.8125 0.84375 2.015625 0.84375q0.90625 0 1.546875 -0.46875q0.640625 -0.484375 1.015625 -1.515625zm-5.390625 -2.65625l5.40625 0q-0.109375 -1.21875 -0.625 -1.828125q-0.78125 -0.953125 -2.03125 -0.953125q-1.125 0 -1.90625 0.765625q-0.765625 0.75 -0.84375 2.015625zm9.125732 5.765625l0 -9.671875l1.46875 0l0 1.46875q0.5625 -1.03125 1.03125 -1.359375q0.484375 -0.328125 1.0625 -0.328125q0.828125 0 1.6875 0.53125l-0.5625 1.515625q-0.609375 -0.359375 -1.203125 -0.359375q-0.546875 0 -0.96875 0.328125q-0.421875 0.328125 -0.609375 0.890625q-0.28125 0.875 -0.28125 1.921875l0 5.0625l-1.625 0zm6.1501465 3.71875l-0.1875 -1.53125q0.546875 0.140625 0.9375 0.140625q0.546875 0 0.875 -0.1875q0.328125 -0.171875 0.546875 -0.5q0.15625 -0.25 0.5 -1.21875q0.046875 -0.140625 0.140625 -0.40625l-3.671875 -9.6875l1.765625 0l2.015625 5.59375q0.390625 1.078125 0.703125 2.25q0.28125 -1.125 0.671875 -2.203125l2.078125 -5.640625l1.640625 0l-3.6875 9.828125q-0.59375 1.609375 -0.921875 2.203125q-0.4375 0.8125 -1.0 1.1875q-0.5625 0.375 -1.34375 0.375q-0.484375 0 -1.0625 -0.203125zm22.745789 -5.296875l0 1.578125l-8.8280945 0q-0.015625 -0.59375 0.1875 -1.140625q0.34375 -0.90625 1.078125 -1.78125q0.75 -0.875 2.15625 -2.015625q2.171875 -1.78125 2.9374695 -2.828125q0.765625 -1.046875 0.765625 -1.96875q0 -0.984375 -0.703125 -1.640625q-0.6874695 -0.671875 -1.8124695 -0.671875q-1.1875 0 -1.90625 0.71875q-0.703125 0.703125 -0.703125 1.953125l-1.6875 -0.171875q0.171875 -1.890625 1.296875 -2.875q1.140625 -0.984375 3.03125 -0.984375q1.9218445 0 3.0468445 1.0625q1.125 1.0625 1.125 2.640625q0 0.796875 -0.328125 1.578125q-0.328125 0.78125 -1.09375 1.640625q-0.75 0.84375 -2.5312195 2.34375q-1.46875 1.234375 -1.890625 1.6875q-0.421875 0.4375 -0.6875 0.875l6.5468445 0zm7.402832 1.578125l0 -9.671875l1.46875 0l0 1.359375q0.453125 -0.71875 1.203125 -1.140625q0.765625 -0.4375 1.71875 -0.4375q1.078125 0 1.765625 0.453125q0.6875 0.4375 0.96875 1.234375q1.15625 -1.6875 2.984375 -1.6875q1.453125 0 2.21875 0.796875q0.78125 0.796875 0.78125 2.453125l0 6.640625l-1.640625 0l0 -6.09375q0 -0.984375 -0.15625 -1.40625q-0.15625 -0.4375 -0.578125 -0.703125q-0.421875 -0.265625 -0.984375 -0.265625q-1.015625 0 -1.6875 0.6875q-0.671875 0.671875 -0.671875 2.15625l0 5.625l-1.640625 0l0 -6.28125q0 -1.09375 -0.40625 -1.640625q-0.40625 -0.546875 -1.3125 -0.546875q-0.6875 0 -1.28125 0.359375q-0.59375 0.359375 -0.859375 1.0625q-0.25 0.703125 -0.25 2.03125l0 5.015625l-1.640625 0zm15.5407715 -11.46875l0 -1.890625l1.640625 0l0 1.890625l-1.640625 0zm0 11.46875l0 -9.671875l1.640625 0l0 9.671875l-1.640625 0zm4.1448364 0l0 -9.671875l1.46875 0l0 1.375q1.0625 -1.59375 3.078125 -1.59375q0.875 0 1.609375 0.3125q0.734375 0.3125 1.09375 0.828125q0.375 0.5 0.515625 1.203125q0.09375 0.453125 0.09375 1.59375l0 5.953125l-1.640625 0l0 -5.890625q0 -1.0 -0.203125 -1.484375q-0.1875 -0.5 -0.671875 -0.796875q-0.484375 -0.296875 -1.140625 -0.296875q-1.046875 0 -1.8125 0.671875q-0.75 0.65625 -0.75 2.515625l0 5.28125l-1.640625 0zm16.703796 0l0 -1.421875q-1.125 1.640625 -3.0625 1.640625q-0.859375 0 -1.609375 -0.328125q-0.734375 -0.328125 -1.09375 -0.828125q-0.359375 -0.5 -0.5 -1.21875q-0.109375 -0.46875 -0.109375 -1.53125l0 -5.984375l1.640625 0l0 5.359375q0 1.28125 0.109375 1.734375q0.15625 0.640625 0.65625 1.015625q0.5 0.375 1.234375 0.375q0.734375 0 1.375 -0.375q0.65625 -0.390625 0.921875 -1.03125q0.265625 -0.65625 0.265625 -1.890625l0 -5.1875l1.640625 0l0 9.671875l-1.46875 0zm7.6257324 -1.46875l0.234375 1.453125q-0.6875 0.140625 -1.234375 0.140625q-0.890625 0 -1.390625 -0.28125q-0.484375 -0.28125 -0.6875 -0.734375q-0.203125 -0.46875 -0.203125 -1.9375l0 -5.578125l-1.203125 0l0 -1.265625l1.203125 0l0 -2.390625l1.625 -0.984375l0 3.375l1.65625 0l0 1.265625l-1.65625 0l0 5.671875q0 0.6875 0.078125 0.890625q0.09375 0.203125 0.28125 0.328125q0.203125 0.109375 0.578125 0.109375q0.265625 0 0.71875 -0.0625zm8.230225 -1.640625l1.6875 0.203125q-0.40625 1.484375 -1.484375 2.3125q-1.078125 0.8125 -2.765625 0.8125q-2.125 0 -3.375 -1.296875q-1.234375 -1.3125 -1.234375 -3.671875q0 -2.453125 1.25 -3.796875q1.265625 -1.34375 3.265625 -1.34375q1.9375 0 3.15625 1.328125q1.234375 1.3125 1.234375 3.703125q0 0.15625 0 0.4375l-7.21875 0q0.09375 1.59375 0.90625 2.453125q0.8125 0.84375 2.015625 0.84375q0.90625 0 1.546875 -0.46875q0.640625 -0.484375 1.015625 -1.515625zm-5.390625 -2.65625l5.40625 0q-0.109375 -1.21875 -0.625 -1.828125q-0.78125 -0.953125 -2.03125 -0.953125q-1.125 0 -1.90625 0.765625q-0.765625 0.75 -0.84375 2.015625zm8.485046 2.875l1.625 -0.25q0.125 0.96875 0.75 1.5q0.625 0.515625 1.75 0.515625q1.125 0 1.671875 -0.453125q0.546875 -0.46875 0.546875 -1.09375q0 -0.546875 -0.484375 -0.875q-0.328125 -0.21875 -1.671875 -0.546875q-1.8125 -0.46875 -2.515625 -0.796875q-0.6875 -0.328125 -1.046875 -0.90625q-0.359375 -0.59375 -0.359375 -1.3125q0 -0.640625 0.296875 -1.1875q0.296875 -0.5625 0.8125 -0.921875q0.375 -0.28125 1.03125 -0.46875q0.671875 -0.203125 1.421875 -0.203125q1.140625 0 2.0 0.328125q0.859375 0.328125 1.265625 0.890625q0.421875 0.5625 0.578125 1.5l-1.609375 0.21875q-0.109375 -0.75 -0.640625 -1.171875q-0.515625 -0.421875 -1.46875 -0.421875q-1.140625 0 -1.625 0.375q-0.46875 0.375 -0.46875 0.875q0 0.3125 0.1875 0.578125q0.203125 0.265625 0.640625 0.4375q0.234375 0.09375 1.4375 0.421875q1.75 0.453125 2.4375 0.75q0.6875 0.296875 1.078125 0.859375q0.390625 0.5625 0.390625 1.40625q0 0.828125 -0.484375 1.546875q-0.46875 0.71875 -1.375 1.125q-0.90625 0.390625 -2.046875 0.390625q-1.875 0 -2.875 -0.78125q-0.984375 -0.78125 -1.25 -2.328125z" fill-rule="nonzero"/><path fill="#f4cccc" d="m383.53543 260.6299l219.65353 0l0 99.37009l-219.65353 0z" fill-rule="evenodd"/><path stroke="#000000" stroke-width="1.0" stroke-linejoin="round" stroke-linecap="butt" d="m383.53543 260.6299l219.65353 0l0 99.37009l-219.65353 0z" fill-rule="evenodd"/><path fill="#000000" d="m437.39587 310.23996l-1.796875 0.328125q-0.09375 -0.53125 -0.421875 -0.796875q-0.328125 -0.28125 -0.828125 -0.28125q-0.6875 0 -1.09375 0.46875q-0.40625 0.46875 -0.40625 1.578125q0 1.234375 0.40625 1.75q0.421875 0.5 1.109375 0.5q0.53125 0 0.859375 -0.296875q0.328125 -0.296875 0.46875 -1.03125l1.796875 0.3125q-0.28125 1.234375 -1.078125 1.875q-0.796875 0.625 -2.125 0.625q-1.515625 0 -2.421875 -0.953125q-0.90625 -0.953125 -0.90625 -2.65625q0 -1.703125 0.90625 -2.65625q0.90625 -0.953125 2.453125 -0.953125q1.265625 0 2.0 0.546875q0.75 0.53125 1.078125 1.640625zm3.1312256 4.875l-1.828125 0l0 -6.90625l1.703125 0l0 0.984375q0.4375 -0.703125 0.78125 -0.921875q0.34375 -0.21875 0.796875 -0.21875q0.625 0 1.203125 0.34375l-0.5625 1.59375q-0.46875 -0.296875 -0.859375 -0.296875q-0.390625 0 -0.65625 0.21875q-0.265625 0.203125 -0.421875 0.765625q-0.15625 0.546875 -0.15625 2.296875l0 2.140625zm2.5773926 -6.90625l1.9375 0l1.65625 4.90625l1.609375 -4.90625l1.90625 0l-2.453125 6.640625l-0.421875 1.203125q-0.25 0.609375 -0.46875 0.921875q-0.21875 0.328125 -0.5 0.515625q-0.28125 0.203125 -0.703125 0.3125q-0.40625 0.125 -0.921875 0.125q-0.53125 0 -1.03125 -0.125l-0.171875 -1.421875q0.4375 0.078125 0.78125 0.078125q0.640625 0 0.9375 -0.375q0.3125 -0.375 0.46875 -0.953125l-2.625 -6.921875zm8.224976 0l1.703125 0l0 1.015625q0.328125 -0.53125 0.890625 -0.84375q0.578125 -0.328125 1.265625 -0.328125q1.203125 0 2.03125 0.9375q0.84375 0.9375 0.84375 2.625q0 1.734375 -0.84375 2.703125q-0.84375 0.953125 -2.046875 0.953125q-0.578125 0 -1.046875 -0.21875q-0.453125 -0.234375 -0.96875 -0.796875l0 3.484375l-1.828125 0l0 -9.53125zm1.8125 3.328125q0 1.171875 0.453125 1.734375q0.46875 0.546875 1.125 0.546875q0.640625 0 1.0625 -0.5q0.421875 -0.515625 0.421875 -1.6875q0 -1.078125 -0.4375 -1.609375q-0.4375 -0.53125 -1.078125 -0.53125q-0.671875 0 -1.109375 0.515625q-0.4375 0.515625 -0.4375 1.53125zm9.547607 -3.328125l0 1.453125l-1.25 0l0 2.78125q0 0.84375 0.03125 0.984375q0.046875 0.140625 0.171875 0.234375q0.125 0.09375 0.3125 0.09375q0.25 0 0.734375 -0.171875l0.15625 1.421875q-0.640625 0.265625 -1.453125 0.265625q-0.484375 0 -0.890625 -0.15625q-0.390625 -0.171875 -0.578125 -0.4375q-0.1875 -0.265625 -0.265625 -0.71875q-0.046875 -0.3125 -0.046875 -1.28125l0 -3.015625l-0.84375 0l0 -1.453125l0.84375 0l0 -1.375l1.828125 -1.078125l0 2.453125l1.25 0zm0.844635 3.359375q0 -0.921875 0.453125 -1.765625q0.453125 -0.859375 1.265625 -1.296875q0.828125 -0.453125 1.84375 -0.453125q1.5625 0 2.5625 1.015625q1.015625 1.015625 1.015625 2.578125q0 1.5625 -1.015625 2.59375q-1.015625 1.03125 -2.546875 1.03125q-0.953125 0 -1.8125 -0.421875q-0.859375 -0.4375 -1.3125 -1.265625q-0.453125 -0.828125 -0.453125 -2.015625zm1.875 0.09375q0 1.03125 0.484375 1.578125q0.5 0.546875 1.203125 0.546875q0.71875 0 1.203125 -0.546875q0.484375 -0.546875 0.484375 -1.59375q0 -1.015625 -0.484375 -1.5625q-0.484375 -0.546875 -1.203125 -0.546875q-0.703125 0 -1.203125 0.546875q-0.484375 0.546875 -0.484375 1.578125zm6.4851074 0.90625l0 -1.828125l3.59375 0l0 1.828125l-3.59375 0zm5.9383545 2.546875l-2.1875 -6.90625l1.765625 0l1.296875 4.53125l1.203125 -4.53125l1.75 0l1.15625 4.53125l1.328125 -4.53125l1.796875 0l-2.21875 6.90625l-1.75 0l-1.203125 -4.4375l-1.171875 4.4375l-1.765625 0zm10.44519 -4.796875l-1.671875 -0.3125q0.28125 -1.0 0.96875 -1.46875q0.6875 -0.484375 2.03125 -0.484375q1.21875 0 1.8125 0.296875q0.609375 0.28125 0.84375 0.734375q0.25 0.4375 0.25 1.625l-0.015625 2.140625q0 0.90625 0.078125 1.34375q0.09375 0.421875 0.34375 0.921875l-1.8125 0q-0.078125 -0.1875 -0.171875 -0.546875q-0.046875 -0.15625 -0.078125 -0.203125q-0.46875 0.453125 -1.0 0.6875q-0.53125 0.21875 -1.140625 0.21875q-1.0625 0 -1.6875 -0.578125q-0.609375 -0.578125 -0.609375 -1.46875q0 -0.578125 0.28125 -1.03125q0.28125 -0.46875 0.78125 -0.703125q0.515625 -0.25 1.46875 -0.4375q1.28125 -0.234375 1.765625 -0.453125l0 -0.171875q0 -0.53125 -0.265625 -0.75q-0.25 -0.234375 -0.96875 -0.234375q-0.484375 0 -0.765625 0.203125q-0.265625 0.1875 -0.4375 0.671875zm2.4375 1.484375q-0.34375 0.109375 -1.109375 0.28125q-0.765625 0.15625 -1.0 0.3125q-0.359375 0.25 -0.359375 0.640625q0 0.390625 0.28125 0.671875q0.296875 0.28125 0.734375 0.28125q0.5 0 0.953125 -0.328125q0.328125 -0.25 0.4375 -0.609375q0.0625 -0.234375 0.0625 -0.890625l0 -0.359375zm3.5999756 3.3125l0 -9.546875l1.828125 0l0 9.546875l-1.828125 0zm3.7029724 0l0 -9.546875l1.828125 0l0 9.546875l-1.828125 0zm7.703003 -2.203125l1.828125 0.3125q-0.34375 1.0 -1.109375 1.53125q-0.765625 0.515625 -1.890625 0.515625q-1.8125 0 -2.671875 -1.171875q-0.6875 -0.953125 -0.6875 -2.390625q0 -1.71875 0.890625 -2.6875q0.90625 -0.96875 2.28125 -0.96875q1.546875 0 2.4375 1.015625q0.890625 1.015625 0.84375 3.125l-4.578125 0q0.015625 0.8125 0.4375 1.265625q0.421875 0.453125 1.0625 0.453125q0.421875 0 0.71875 -0.234375q0.296875 -0.234375 0.4375 -0.765625zm0.109375 -1.84375q-0.015625 -0.796875 -0.40625 -1.203125q-0.390625 -0.421875 -0.953125 -0.421875q-0.59375 0 -0.984375 0.4375q-0.390625 0.4375 -0.390625 1.1875l2.734375 0zm6.4749756 -2.859375l0 1.453125l-1.25 0l0 2.78125q0 0.84375 0.03125 0.984375q0.046875 0.140625 0.171875 0.234375q0.125 0.09375 0.3125 0.09375q0.25 0 0.734375 -0.171875l0.15625 1.421875q-0.640625 0.265625 -1.453125 0.265625q-0.484375 0 -0.890625 -0.15625q-0.390625 -0.171875 -0.578125 -0.4375q-0.1875 -0.265625 -0.265625 -0.71875q-0.046875 -0.3125 -0.046875 -1.28125l0 -3.015625l-0.84375 0l0 -1.453125l0.84375 0l0 -1.375l1.828125 -1.078125l0 2.453125l1.25 0zm1.0633545 4.359375l0 -1.828125l3.59375 0l0 1.828125l-3.59375 0zm4.0009155 0.578125l1.828125 -0.28125q0.125 0.53125 0.484375 0.8125q0.359375 0.265625 1.0 0.265625q0.703125 0 1.0625 -0.25q0.25 -0.1875 0.25 -0.484375q0 -0.21875 -0.140625 -0.359375q-0.125 -0.125 -0.609375 -0.234375q-2.203125 -0.484375 -2.796875 -0.890625q-0.828125 -0.5625 -0.828125 -1.5625q0 -0.890625 0.703125 -1.5q0.71875 -0.609375 2.203125 -0.609375q1.421875 0 2.109375 0.46875q0.703125 0.453125 0.953125 1.359375l-1.71875 0.3125q-0.109375 -0.40625 -0.421875 -0.609375q-0.3125 -0.21875 -0.890625 -0.21875q-0.71875 0 -1.03125 0.203125q-0.203125 0.140625 -0.203125 0.359375q0 0.203125 0.1875 0.34375q0.234375 0.171875 1.6875 0.515625q1.46875 0.328125 2.0625 0.8125q0.5625 0.484375 0.5625 1.359375q0 0.953125 -0.796875 1.640625q-0.78125 0.671875 -2.34375 0.671875q-1.40625 0 -2.234375 -0.5625q-0.828125 -0.578125 -1.078125 -1.5625zm11.224976 -4.9375l0 1.453125l-1.25 0l0 2.78125q0 0.84375 0.03125 0.984375q0.046875 0.140625 0.171875 0.234375q0.125 0.09375 0.3125 0.09375q0.25 0 0.734375 -0.171875l0.15625 1.421875q-0.640625 0.265625 -1.453125 0.265625q-0.484375 0 -0.890625 -0.15625q-0.390625 -0.171875 -0.578125 -0.4375q-0.1875 -0.265625 -0.265625 -0.71875q-0.046875 -0.3125 -0.046875 -1.28125l0 -3.015625l-0.84375 0l0 -1.453125l0.84375 0l0 -1.375l1.828125 -1.078125l0 2.453125l1.25 0zm2.6414795 2.109375l-1.671875 -0.3125q0.28125 -1.0 0.96875 -1.46875q0.6875 -0.484375 2.03125 -0.484375q1.21875 0 1.8125 0.296875q0.609375 0.28125 0.84375 0.734375q0.25 0.4375 0.25 1.625l-0.015625 2.140625q0 0.90625 0.078125 1.34375q0.09375 0.421875 0.34375 0.921875l-1.8125 0q-0.078125 -0.1875 -0.171875 -0.546875q-0.046875 -0.15625 -0.078125 -0.203125q-0.46875 0.453125 -1.0 0.6875q-0.53125 0.21875 -1.140625 0.21875q-1.0625 0 -1.6875 -0.578125q-0.609375 -0.578125 -0.609375 -1.46875q0 -0.578125 0.28125 -1.03125q0.28125 -0.46875 0.78125 -0.703125q0.515625 -0.25 1.46875 -0.4375q1.28125 -0.234375 1.765625 -0.453125l0 -0.171875q0 -0.53125 -0.265625 -0.75q-0.25 -0.234375 -0.96875 -0.234375q-0.484375 0 -0.765625 0.203125q-0.265625 0.1875 -0.4375 0.671875zm2.4375 1.484375q-0.34375 0.109375 -1.109375 0.28125q-0.765625 0.15625 -1.0 0.3125q-0.359375 0.25 -0.359375 0.640625q0 0.390625 0.28125 0.671875q0.296875 0.28125 0.734375 0.28125q0.5 0 0.953125 -0.328125q0.328125 -0.25 0.4375 -0.609375q0.0625 -0.234375 0.0625 -0.890625l0 -0.359375zm6.7718506 -3.59375l0 1.453125l-1.25 0l0 2.78125q0 0.84375 0.03125 0.984375q0.046875 0.140625 0.171875 0.234375q0.125 0.09375 0.3125 0.09375q0.25 0 0.734375 -0.171875l0.15625 1.421875q-0.640625 0.265625 -1.453125 0.265625q-0.484375 0 -0.890625 -0.15625q-0.390625 -0.171875 -0.578125 -0.4375q-0.1875 -0.265625 -0.265625 -0.71875q-0.046875 -0.3125 -0.046875 -1.28125l0 -3.015625l-0.84375 0l0 -1.453125l0.84375 0l0 -1.375l1.828125 -1.078125l0 2.453125l1.25 0zm5.8133545 6.90625l0 -1.03125q-0.375 0.546875 -1.0 0.875q-0.609375 0.3125 -1.28125 0.3125q-0.703125 0 -1.265625 -0.296875q-0.546875 -0.3125 -0.796875 -0.859375q-0.234375 -0.5625 -0.234375 -1.53125l0 -4.375l1.828125 0l0 3.171875q0 1.453125 0.09375 1.78125q0.109375 0.328125 0.375 0.53125q0.265625 0.1875 0.671875 0.1875q0.46875 0 0.84375 -0.25q0.375 -0.265625 0.5 -0.640625q0.140625 -0.390625 0.140625 -1.875l0 -2.90625l1.828125 0l0 6.90625l-1.703125 0zm2.9538574 -1.96875l1.828125 -0.28125q0.125 0.53125 0.484375 0.8125q0.359375 0.265625 1.0 0.265625q0.703125 0 1.0625 -0.25q0.25 -0.1875 0.25 -0.484375q0 -0.21875 -0.140625 -0.359375q-0.125 -0.125 -0.609375 -0.234375q-2.203125 -0.484375 -2.796875 -0.890625q-0.828125 -0.5625 -0.828125 -1.5625q0 -0.890625 0.703125 -1.5q0.71875 -0.609375 2.203125 -0.609375q1.421875 0 2.109375 0.46875q0.703125 0.453125 0.953125 1.359375l-1.71875 0.3125q-0.109375 -0.40625 -0.421875 -0.609375q-0.3125 -0.21875 -0.890625 -0.21875q-0.71875 0 -1.03125 0.203125q-0.203125 0.140625 -0.203125 0.359375q0 0.203125 0.1875 0.34375q0.234375 0.171875 1.6875 0.515625q1.46875 0.328125 2.0625 0.8125q0.5625 0.484375 0.5625 1.359375q0 0.953125 -0.796875 1.640625q-0.78125 0.671875 -2.34375 0.671875q-1.40625 0 -2.234375 -0.5625q-0.828125 -0.578125 -1.078125 -1.5625z" fill-rule="nonzero"/><path fill="#cfe2f3" d="m678.1496 320.772l117.66931 0l0 78.456696l-117.66931 0z" fill-rule="evenodd"/><path stroke="#000000" stroke-width="1.0" stroke-linejoin="round" stroke-linecap="butt" d="m678.1496 320.772l117.66931 0l0 78.456696l-117.66931 0z" fill-rule="evenodd"/><path fill="#000000" d="m703.51984 364.80035l0 -9.546875l3.59375 0q1.09375 0 1.75 0.296875q0.65625 0.28125 1.03125 0.890625q0.375 0.609375 0.375 1.265625q0 0.609375 -0.34375 1.15625q-0.328125 0.53125 -0.984375 0.859375q0.859375 0.25 1.328125 0.875q0.46875 0.609375 0.46875 1.4375q0 0.671875 -0.296875 1.25q-0.28125 0.578125 -0.703125 0.890625q-0.40625 0.3125 -1.03125 0.46875q-0.625 0.15625 -1.546875 0.15625l-3.640625 0zm1.265625 -5.53125l2.0625 0q0.84375 0 1.203125 -0.109375q0.484375 -0.140625 0.71875 -0.46875q0.25 -0.34375 0.25 -0.84375q0 -0.46875 -0.234375 -0.828125q-0.21875 -0.359375 -0.640625 -0.5q-0.421875 -0.140625 -1.453125 -0.140625l-1.90625 0l0 2.890625zm0 4.40625l2.375 0q0.609375 0 0.859375 -0.046875q0.4375 -0.078125 0.734375 -0.25q0.296875 -0.1875 0.484375 -0.53125q0.1875 -0.359375 0.1875 -0.8125q0 -0.53125 -0.28125 -0.921875q-0.265625 -0.40625 -0.75 -0.5625q-0.484375 -0.15625 -1.40625 -0.15625l-2.203125 0l0 3.28125zm7.7022705 1.125l0 -9.546875l4.234375 0q1.265625 0 1.921875 0.265625q0.671875 0.25 1.0625 0.90625q0.40625 0.65625 0.40625 1.4375q0 1.015625 -0.65625 1.71875q-0.65625 0.6875 -2.03125 0.875q0.5 0.25 0.765625 0.484375q0.546875 0.5 1.046875 1.265625l1.65625 2.59375l-1.578125 0l-1.265625 -1.984375q-0.5625 -0.859375 -0.921875 -1.3125q-0.34375 -0.453125 -0.640625 -0.640625q-0.28125 -0.1875 -0.5625 -0.25q-0.21875 -0.046875 -0.703125 -0.046875l-1.46875 0l0 4.234375l-1.265625 0zm1.265625 -5.328125l2.71875 0q0.859375 0 1.34375 -0.171875q0.484375 -0.1875 0.734375 -0.578125q0.265625 -0.390625 0.265625 -0.859375q0 -0.671875 -0.5 -1.109375q-0.484375 -0.4375 -1.546875 -0.4375l-3.015625 0l0 3.15625zm7.953247 0.6875q0 -2.375 1.28125 -3.71875q1.28125 -1.34375 3.296875 -1.34375q1.3125 0 2.375 0.625q1.0625 0.625 1.609375 1.765625q0.5625 1.125 0.5625 2.5625q0 1.4375 -0.59375 2.59375q-0.578125 1.140625 -1.65625 1.734375q-1.0625 0.578125 -2.3125 0.578125q-1.34375 0 -2.40625 -0.640625q-1.0625 -0.65625 -1.609375 -1.78125q-0.546875 -1.125 -0.546875 -2.375zm1.3125 0.015625q0 1.71875 0.921875 2.71875q0.921875 0.984375 2.328125 0.984375q1.421875 0 2.34375 -1.0q0.921875 -1.0 0.921875 -2.84375q0 -1.15625 -0.40625 -2.03125q-0.390625 -0.875 -1.15625 -1.34375q-0.75 -0.484375 -1.6875 -0.484375q-1.34375 0 -2.3125 0.921875q-0.953125 0.921875 -0.953125 3.078125zm11.10144 4.625l-2.53125 -9.546875l1.296875 0l1.453125 6.265625q0.234375 0.984375 0.40625 1.953125q0.359375 -1.53125 0.421875 -1.765625l1.828125 -6.453125l1.515625 0l1.375 4.828125q0.515625 1.796875 0.734375 3.390625q0.1875 -0.90625 0.484375 -2.078125l1.484375 -6.140625l1.28125 0l-2.625 9.546875l-1.21875 0l-2.0 -7.265625q-0.265625 -0.921875 -0.3125 -1.125q-0.140625 0.65625 -0.28125 1.125l-2.015625 7.265625l-1.296875 0zm10.485962 -3.0625l1.203125 -0.109375q0.078125 0.71875 0.390625 1.1875q0.3125 0.453125 0.953125 0.734375q0.65625 0.28125 1.46875 0.28125q0.71875 0 1.265625 -0.21875q0.5625 -0.21875 0.828125 -0.578125q0.265625 -0.375 0.265625 -0.828125q0 -0.453125 -0.265625 -0.78125q-0.25 -0.328125 -0.84375 -0.5625q-0.390625 -0.15625 -1.703125 -0.46875q-1.3125 -0.3125 -1.84375 -0.59375q-0.671875 -0.359375 -1.015625 -0.890625q-0.328125 -0.53125 -0.328125 -1.1875q0 -0.71875 0.40625 -1.34375q0.40625 -0.625 1.1875 -0.953125q0.796875 -0.328125 1.765625 -0.328125q1.046875 0 1.859375 0.34375q0.8125 0.34375 1.25 1.015625q0.4375 0.65625 0.46875 1.484375l-1.203125 0.09375q-0.109375 -0.90625 -0.671875 -1.359375q-0.5625 -0.46875 -1.65625 -0.46875q-1.140625 0 -1.671875 0.421875q-0.515625 0.421875 -0.515625 1.015625q0 0.515625 0.359375 0.84375q0.375 0.328125 1.90625 0.6875q1.546875 0.34375 2.109375 0.59375q0.84375 0.390625 1.234375 0.984375q0.390625 0.578125 0.390625 1.359375q0 0.75 -0.4375 1.4375q-0.421875 0.671875 -1.25 1.046875q-0.8125 0.359375 -1.828125 0.359375q-1.296875 0 -2.171875 -0.375q-0.875 -0.375 -1.375 -1.125q-0.5 -0.765625 -0.53125 -1.71875zm9.3428955 3.0625l0 -9.546875l6.90625 0l0 1.125l-5.640625 0l0 2.921875l5.28125 0l0 1.125l-5.28125 0l0 3.25l5.859375 0l0 1.125l-7.125 0zm8.8897705 0l0 -9.546875l4.234375 0q1.265625 0 1.921875 0.265625q0.671875 0.25 1.0625 0.90625q0.40625 0.65625 0.40625 1.4375q0 1.015625 -0.65625 1.71875q-0.65625 0.6875 -2.03125 0.875q0.5 0.25 0.765625 0.484375q0.546875 0.5 1.046875 1.265625l1.65625 2.59375l-1.578125 0l-1.265625 -1.984375q-0.5625 -0.859375 -0.921875 -1.3125q-0.34375 -0.453125 -0.640625 -0.640625q-0.28125 -0.1875 -0.5625 -0.25q-0.21875 -0.046875 -0.703125 -0.046875l-1.46875 0l0 4.234375l-1.265625 0zm1.265625 -5.328125l2.71875 0q0.859375 0 1.34375 -0.171875q0.484375 -0.1875 0.734375 -0.578125q0.265625 -0.390625 0.265625 -0.859375q0 -0.671875 -0.5 -1.109375q-0.484375 -0.4375 -1.546875 -0.4375l-3.015625 0l0 3.15625z" fill-rule="nonzero"/><path fill="#000000" fill-opacity="0.0" d="m604.51184 334.33105l73.63776 25.669281" fill-rule="evenodd"/><path stroke="#000000" stroke-width="1.0" stroke-linejoin="round" stroke-linecap="butt" d="m610.1774 336.30603l62.30652 21.7193" fill-rule="evenodd"/><path fill="#000000" stroke="#000000" stroke-width="1.0" stroke-linecap="butt" d="m610.7211 334.74634l-4.8288574 0.06591797l3.741516 3.0534668z" fill-rule="evenodd"/><path fill="#000000" stroke="#000000" stroke-width="1.0" stroke-linecap="butt" d="m671.9403 359.58505l4.8288574 -0.06591797l-3.741516 -3.0534668z" fill-rule="evenodd"/><path fill="#ffffff" d="m131.05774 165.6063l117.6693 0l0 73.35434l-117.6693 0z" fill-rule="evenodd"/><path stroke="#000000" stroke-width="1.0" stroke-linejoin="round" stroke-linecap="butt" d="m131.05774 165.6063l117.6693 0l0 73.35434l-117.6693 0z" fill-rule="evenodd"/><path fill="#000000" d="m166.851 199.08347l0 -9.546875l3.59375 0q0.953125 0 1.453125 0.09375q0.703125 0.125 1.171875 0.453125q0.484375 0.328125 0.765625 0.921875q0.296875 0.59375 0.296875 1.296875q0 1.21875 -0.78125 2.0625q-0.765625 0.84375 -2.796875 0.84375l-2.4375 0l0 3.875l-1.265625 0zm1.265625 -5.0l2.453125 0q1.234375 0 1.75 -0.453125q0.515625 -0.46875 0.515625 -1.28125q0 -0.609375 -0.3125 -1.03125q-0.296875 -0.421875 -0.796875 -0.5625q-0.3125 -0.09375 -1.171875 -0.09375l-2.4375 0l0 3.421875zm13.87413 -4.546875l1.265625 0l0 5.515625q0 1.4375 -0.328125 2.296875q-0.3125 0.84375 -1.171875 1.375q-0.84375 0.515625 -2.21875 0.515625q-1.34375 0 -2.203125 -0.453125q-0.84375 -0.46875 -1.21875 -1.34375q-0.359375 -0.875 -0.359375 -2.390625l0 -5.515625l1.265625 0l0 5.515625q0 1.234375 0.21875 1.828125q0.234375 0.59375 0.796875 0.921875q0.5625 0.3125 1.390625 0.3125q1.390625 0 1.96875 -0.625q0.59375 -0.640625 0.59375 -2.4375l0 -5.515625zm3.3126526 9.546875l0 -9.546875l3.59375 0q1.09375 0 1.75 0.296875q0.65625 0.28125 1.03125 0.890625q0.375 0.609375 0.375 1.265625q0 0.609375 -0.34375 1.15625q-0.328125 0.53125 -0.984375 0.859375q0.859375 0.25 1.328125 0.875q0.46875 0.609375 0.46875 1.4375q0 0.671875 -0.296875 1.25q-0.28125 0.578125 -0.703125 0.890625q-0.40625 0.3125 -1.03125 0.46875q-0.625 0.15625 -1.546875 0.15625l-3.640625 0zm1.265625 -5.53125l2.0625 0q0.84375 0 1.203125 -0.109375q0.484375 -0.140625 0.71875 -0.46875q0.25 -0.34375 0.25 -0.84375q0 -0.46875 -0.234375 -0.828125q-0.21875 -0.359375 -0.640625 -0.5q-0.421875 -0.140625 -1.453125 -0.140625l-1.90625 0l0 2.890625zm0 4.40625l2.375 0q0.609375 0 0.859375 -0.046875q0.4375 -0.078125 0.734375 -0.25q0.296875 -0.1875 0.484375 -0.53125q0.1875 -0.359375 0.1875 -0.8125q0 -0.53125 -0.28125 -0.921875q-0.265625 -0.40625 -0.75 -0.5625q-0.484375 -0.15625 -1.40625 -0.15625l-2.203125 0l0 3.28125zm7.6241302 1.125l0 -9.546875l1.265625 0l0 8.421875l4.703125 0l0 1.125l-5.96875 0zm7.6937256 0l0 -9.546875l1.25 0l0 9.546875l-1.25 0zm10.281113 -3.34375l1.265625 0.3125q-0.390625 1.5625 -1.421875 2.375q-1.03125 0.8125 -2.53125 0.8125q-1.53125 0 -2.5 -0.625q-0.96875 -0.625 -1.484375 -1.8125q-0.5 -1.1875 -0.5 -2.5625q0 -1.484375 0.5625 -2.59375q0.578125 -1.109375 1.625 -1.6875q1.0625 -0.578125 2.328125 -0.578125q1.421875 0 2.390625 0.734375q0.984375 0.71875 1.375 2.046875l-1.25 0.296875q-0.328125 -1.046875 -0.96875 -1.515625q-0.625 -0.484375 -1.578125 -0.484375q-1.09375 0 -1.84375 0.53125q-0.734375 0.53125 -1.03125 1.421875q-0.296875 0.875 -0.296875 1.828125q0 1.21875 0.34375 2.125q0.359375 0.90625 1.109375 1.359375q0.75 0.4375 1.625 0.4375q1.0625 0 1.796875 -0.609375q0.734375 -0.609375 0.984375 -1.8125z" fill-rule="nonzero"/><path fill="#000000" d="m148.51518 215.08347l-2.53125 -9.546875l1.296875 0l1.453125 6.265625q0.234375 0.984375 0.40625 1.953125q0.359375 -1.53125 0.421875 -1.765625l1.828125 -6.453125l1.515625 0l1.375 4.828125q0.515625 1.796875 0.734375 3.390625q0.1875 -0.90625 0.484375 -2.078125l1.484375 -6.140625l1.28125 0l-2.625 9.546875l-1.21875 0l-2.0 -7.265625q-0.265625 -0.921875 -0.3125 -1.125q-0.140625 0.65625 -0.28125 1.125l-2.015625 7.265625l-1.296875 0zm9.381805 0l3.65625 -9.546875l1.359375 0l3.90625 9.546875l-1.4375 0l-1.109375 -2.890625l-3.984375 0l-1.046875 2.890625l-1.34375 0zm2.75 -3.921875l3.234375 0l-1.0 -2.640625q-0.453125 -1.203125 -0.671875 -1.96875q-0.1875 0.90625 -0.515625 1.8125l-1.046875 2.796875zm7.1241302 3.921875l0 -9.546875l1.265625 0l0 8.421875l4.703125 0l0 1.125l-5.96875 0zm7.4124756 0l0 -9.546875l1.265625 0l0 8.421875l4.703125 0l0 1.125l-5.96875 0zm7.4906006 0l0 -9.546875l6.90625 0l0 1.125l-5.640625 0l0 2.921875l5.28125 0l0 1.125l-5.28125 0l0 3.25l5.859375 0l0 1.125l-7.125 0zm11.296005 0l0 -8.421875l-3.140625 0l0 -1.125l7.5625 0l0 1.125l-3.15625 0l0 8.421875l-1.265625 0zm9.40033 0l0 -9.546875l1.25 0l0 9.546875l-1.25 0zm3.4686127 0l0 -9.546875l1.296875 0l5.015625 7.5l0 -7.5l1.203125 0l0 9.546875l-1.296875 0l-5.015625 -7.5l0 7.5l-1.203125 0zm9.703278 0l0 -9.546875l6.4375 0l0 1.125l-5.171875 0l0 2.96875l4.46875 0l0 1.125l-4.46875 0l0 4.328125l-1.265625 0zm7.6882324 -4.640625q0 -2.375 1.28125 -3.71875q1.28125 -1.34375 3.296875 -1.34375q1.3125 0 2.375 0.625q1.0625 0.625 1.609375 1.765625q0.5625 1.125 0.5625 2.5625q0 1.4375 -0.59375 2.59375q-0.578125 1.140625 -1.65625 1.734375q-1.0625 0.578125 -2.3125 0.578125q-1.34375 0 -2.40625 -0.640625q-1.0625 -0.65625 -1.609375 -1.78125q-0.546875 -1.125 -0.546875 -2.375zm1.3125 0.015625q0 1.71875 0.921875 2.71875q0.921875 0.984375 2.328125 0.984375q1.421875 0 2.34375 -1.0q0.921875 -1.0 0.921875 -2.84375q0 -1.15625 -0.40625 -2.03125q-0.390625 -0.875 -1.15625 -1.34375q-0.75 -0.484375 -1.6875 -0.484375q-1.34375 0 -2.3125 0.921875q-0.953125 0.921875 -0.953125 3.078125z" fill-rule="nonzero"/><path fill="#000000" fill-opacity="0.0" d="m248.72704 202.28346l134.80315 108.03151" fill-rule="evenodd"/><path stroke="#000000" stroke-width="1.0" stroke-linejoin="round" stroke-linecap="butt" d="m248.72704 202.28346l130.12114 104.27931" fill-rule="evenodd"/><path fill="#000000" stroke="#000000" stroke-width="1.0" stroke-linecap="butt" d="m377.81525 307.85168l4.5741577 1.5490723l-2.5083008 -4.1268616z" fill-rule="evenodd"/><path fill="#000000" fill-opacity="0.0" d="m282.87665 194.68767l94.70865 0l0 33.13385l-94.70865 0z" fill-rule="evenodd"/><path fill="#000000" d="m293.11102 221.60767l0 -13.359375l1.640625 0l0 4.796875q1.140625 -1.328125 2.890625 -1.328125q1.078125 0 1.859375 0.421875q0.796875 0.421875 1.140625 1.171875q0.34375 0.75 0.34375 2.171875l0 6.125l-1.640625 0l0 -6.125q0 -1.234375 -0.53125 -1.796875q-0.53125 -0.5625 -1.515625 -0.5625q-0.71875 0 -1.359375 0.390625q-0.640625 0.375 -0.921875 1.015625q-0.265625 0.640625 -0.265625 1.78125l0 5.296875l-1.640625 0zm13.953827 -1.46875l0.234375 1.453125q-0.6875 0.140625 -1.234375 0.140625q-0.890625 0 -1.390625 -0.28125q-0.484375 -0.28125 -0.6875 -0.734375q-0.203125 -0.46875 -0.203125 -1.9375l0 -5.578125l-1.203125 0l0 -1.265625l1.203125 0l0 -2.390625l1.625 -0.984375l0 3.375l1.65625 0l0 1.265625l-1.65625 0l0 5.671875q0 0.6875 0.078125 0.890625q0.09375 0.203125 0.28125 0.328125q0.203125 0.109375 0.578125 0.109375q0.265625 0 0.71875 -0.0625zm5.183319 0l0.234375 1.453125q-0.6875 0.140625 -1.234375 0.140625q-0.890625 0 -1.390625 -0.28125q-0.484375 -0.28125 -0.6875 -0.734375q-0.203125 -0.46875 -0.203125 -1.9375l0 -5.578125l-1.203125 0l0 -1.265625l1.203125 0l0 -2.390625l1.625 -0.984375l0 3.375l1.65625 0l0 1.265625l-1.65625 0l0 5.671875q0 0.6875 0.078125 0.890625q0.09375 0.203125 0.28125 0.328125q0.203125 0.109375 0.578125 0.109375q0.265625 0 0.71875 -0.0625zm1.6051636 5.171875l0 -13.375l1.484375 0l0 1.25q0.53125 -0.734375 1.1875 -1.09375q0.671875 -0.375 1.625 -0.375q1.234375 0 2.171875 0.640625q0.953125 0.625 1.4375 1.796875q0.484375 1.15625 0.484375 2.546875q0 1.484375 -0.53125 2.671875q-0.53125 1.1875 -1.546875 1.828125q-1.015625 0.625 -2.140625 0.625q-0.8125 0 -1.46875 -0.34375q-0.65625 -0.34375 -1.0625 -0.875l0 4.703125l-1.640625 0zm1.484375 -8.484375q0 1.859375 0.75 2.765625q0.765625 0.890625 1.828125 0.890625q1.09375 0 1.875 -0.921875q0.78125 -0.9375 0.78125 -2.875q0 -1.84375 -0.765625 -2.765625q-0.75 -0.921875 -1.8125 -0.921875q-1.046875 0 -1.859375 0.984375q-0.796875 0.96875 -0.796875 2.84375zm11.779083 4.78125l5.125 -13.359375l1.90625 0l5.46875 13.359375l-2.015625 0l-1.546875 -4.046875l-5.59375 0l-1.46875 4.046875l-1.875 0zm3.859375 -5.484375l4.53125 0l-1.40625 -3.703125q-0.625 -1.6875 -0.9375 -2.765625q-0.265625 1.28125 -0.71875 2.546875l-1.46875 3.921875zm10.052948 5.484375l0 -13.359375l5.046875 0q1.328125 0 2.03125 0.125q0.96875 0.171875 1.640625 0.640625q0.671875 0.453125 1.078125 1.28125q0.40625 0.828125 0.40625 1.828125q0 1.703125 -1.09375 2.890625q-1.078125 1.171875 -3.921875 1.171875l-3.421875 0l0 5.421875l-1.765625 0zm1.765625 -7.0l3.453125 0q1.71875 0 2.4375 -0.640625q0.71875 -0.640625 0.71875 -1.796875q0 -0.84375 -0.421875 -1.4375q-0.421875 -0.59375 -1.125 -0.78125q-0.4375 -0.125 -1.640625 -0.125l-3.421875 0l0 4.78125zm10.974823 7.0l0 -13.359375l1.765625 0l0 13.359375l-1.765625 0z" fill-rule="nonzero"/><path fill="#000000" fill-opacity="0.0" d="m493.3622 360.0l0 42.70865" fill-rule="evenodd"/><path stroke="#000000" stroke-width="1.0" stroke-linejoin="round" stroke-linecap="butt" d="m493.3622 366.0l0 30.708649" fill-rule="evenodd"/><path fill="#000000" stroke="#000000" stroke-width="1.0" stroke-linecap="butt" d="m495.01395 366.0l-1.6517334 -4.538086l-1.6517334 4.538086z" fill-rule="evenodd"/><path fill="#000000" stroke="#000000" stroke-width="1.0" stroke-linecap="butt" d="m491.71048 396.70865l1.6517334 4.5381165l1.6517334 -4.5381165z" fill-rule="evenodd"/><path fill="#ffffff" d="m434.52756 413.76727l0 0c0 -6.1075134 26.341156 -11.058624 58.834656 -11.058624c32.49344 0 58.834625 4.951111 58.834625 11.058624l0 44.234467c0 6.1075134 -26.341187 11.058624 -58.834625 11.058624c-32.4935 0 -58.834656 -4.951111 -58.834656 -11.058624z" fill-rule="evenodd"/><path fill="#000000" fill-opacity="0.0" d="m552.19684 413.76727l0 0c0 6.1075134 -26.341187 11.058624 -58.834625 11.058624c-32.4935 0 -58.834656 -4.951111 -58.834656 -11.058624" fill-rule="evenodd"/><path fill="#000000" fill-opacity="0.0" d="m434.52756 413.76727l0 0c0 -6.1075134 26.341156 -11.058624 58.834656 -11.058624c32.49344 0 58.834625 4.951111 58.834625 11.058624l0 44.234467c0 6.1075134 -26.341187 11.058624 -58.834625 11.058624c-32.4935 0 -58.834656 -4.951111 -58.834656 -11.058624z" fill-rule="evenodd"/><path stroke="#000000" stroke-width="1.0" stroke-linejoin="round" stroke-linecap="butt" d="m552.19684 413.76727l0 0c0 6.1075134 -26.341187 11.058624 -58.834625 11.058624c-32.4935 0 -58.834656 -4.951111 -58.834656 -11.058624" fill-rule="evenodd"/><path stroke="#000000" stroke-width="1.0" stroke-linejoin="round" stroke-linecap="butt" d="m434.52756 413.76727l0 0c0 -6.1075134 26.341156 -11.058624 58.834656 -11.058624c32.49344 0 58.834625 4.951111 58.834625 11.058624l0 44.234467c0 6.1075134 -26.341187 11.058624 -58.834625 11.058624c-32.4935 0 -58.834656 -4.951111 -58.834656 -11.058624z" fill-rule="evenodd"/><path fill="#000000" d="m460.4351 436.15134l1.15625 -0.1875q0.109375 0.703125 0.546875 1.078125q0.453125 0.359375 1.25 0.359375q0.8125 0 1.203125 -0.328125q0.390625 -0.328125 0.390625 -0.765625q0 -0.390625 -0.359375 -0.625q-0.234375 -0.15625 -1.1875 -0.390625q-1.296875 -0.328125 -1.796875 -0.5625q-0.484375 -0.25 -0.75 -0.65625q-0.25 -0.421875 -0.25 -0.9375q0 -0.453125 0.203125 -0.84375q0.21875 -0.40625 0.578125 -0.671875q0.28125 -0.1875 0.75 -0.328125q0.46875 -0.140625 1.015625 -0.140625q0.8125 0 1.421875 0.234375q0.609375 0.234375 0.90625 0.640625q0.296875 0.390625 0.40625 1.0625l-1.140625 0.15625q-0.078125 -0.53125 -0.453125 -0.828125q-0.375 -0.3125 -1.0625 -0.3125q-0.8125 0 -1.15625 0.265625q-0.34375 0.265625 -0.34375 0.625q0 0.234375 0.140625 0.421875q0.15625 0.1875 0.453125 0.3125q0.171875 0.0625 1.03125 0.296875q1.25 0.328125 1.734375 0.546875q0.5 0.203125 0.78125 0.609375q0.28125 0.40625 0.28125 1.0q0 0.59375 -0.34375 1.109375q-0.34375 0.515625 -1.0 0.796875q-0.640625 0.28125 -1.453125 0.28125q-1.34375 0 -2.046875 -0.5625q-0.703125 -0.5625 -0.90625 -1.65625zm7.1484375 -6.125l0 -1.359375l1.171875 0l0 1.359375l-1.171875 0zm0 8.1875l0 -6.90625l1.171875 0l0 6.90625l-1.171875 0zm2.945465 0l0 -6.90625l1.046875 0l0 0.96875q0.328125 -0.515625 0.859375 -0.8125q0.546875 -0.3125 1.234375 -0.3125q0.78125 0 1.265625 0.3125q0.484375 0.3125 0.6875 0.890625q0.828125 -1.203125 2.140625 -1.203125q1.03125 0 1.578125 0.578125q0.5625 0.5625 0.5625 1.734375l0 4.75l-1.171875 0l0 -4.359375q0 -0.703125 -0.125 -1.0q-0.109375 -0.3125 -0.40625 -0.5q-0.296875 -0.1875 -0.703125 -0.1875q-0.71875 0 -1.203125 0.484375q-0.484375 0.484375 -0.484375 1.546875l0 4.015625l-1.171875 0l0 -4.484375q0 -0.78125 -0.296875 -1.171875q-0.28125 -0.390625 -0.921875 -0.390625q-0.5 0 -0.921875 0.265625q-0.421875 0.25 -0.609375 0.75q-0.1875 0.5 -0.1875 1.453125l0 3.578125l-1.171875 0zm11.1024475 2.65625l0 -9.5625l1.078125 0l0 0.890625q0.375 -0.53125 0.84375 -0.78125q0.484375 -0.265625 1.15625 -0.265625q0.875 0 1.546875 0.453125q0.6875 0.453125 1.03125 1.28125q0.34375 0.828125 0.34375 1.828125q0 1.046875 -0.375 1.90625q-0.375 0.84375 -1.109375 1.296875q-0.71875 0.453125 -1.53125 0.453125q-0.578125 0 -1.046875 -0.25q-0.46875 -0.25 -0.765625 -0.625l0 3.375l-1.171875 0zm1.0625 -6.078125q0 1.34375 0.53125 1.984375q0.546875 0.625 1.3125 0.625q0.78125 0 1.34375 -0.65625q0.5625 -0.65625 0.5625 -2.046875q0 -1.3125 -0.546875 -1.96875q-0.546875 -0.671875 -1.296875 -0.671875q-0.75 0 -1.328125 0.703125q-0.578125 0.703125 -0.578125 2.03125zm6.3343506 3.421875l0 -9.546875l1.171875 0l0 9.546875l-1.171875 0zm7.71109 -2.21875l1.203125 0.140625q-0.28125 1.0625 -1.0625 1.65625q-0.765625 0.578125 -1.96875 0.578125q-1.515625 0 -2.40625 -0.9375q-0.890625 -0.9375 -0.890625 -2.609375q0 -1.75 0.890625 -2.703125q0.90625 -0.96875 2.34375 -0.96875q1.390625 0 2.265625 0.9375q0.875 0.9375 0.875 2.65625q0 0.109375 0 0.3125l-5.15625 0q0.0625 1.140625 0.640625 1.75q0.578125 0.59375 1.4375 0.59375q0.65625 0 1.109375 -0.328125q0.453125 -0.34375 0.71875 -1.078125zm-3.84375 -1.90625l3.859375 0q-0.078125 -0.859375 -0.4375 -1.296875q-0.5625 -0.6875 -1.453125 -0.6875q-0.8125 0 -1.359375 0.546875q-0.546875 0.53125 -0.609375 1.4375zm10.224823 -4.0625l0 -1.359375l1.171875 0l0 1.359375l-1.171875 0zm-1.484375 10.875l0.21875 -1.0q0.359375 0.09375 0.546875 0.09375q0.359375 0 0.53125 -0.25q0.1875 -0.234375 0.1875 -1.1875l0 -7.25l1.171875 0l0 7.28125q0 1.28125 -0.328125 1.78125q-0.4375 0.65625 -1.40625 0.65625q-0.484375 0 -0.921875 -0.125zm3.976715 -4.75l1.15625 -0.1875q0.109375 0.703125 0.546875 1.078125q0.453125 0.359375 1.25 0.359375q0.8125 0 1.203125 -0.328125q0.390625 -0.328125 0.390625 -0.765625q0 -0.390625 -0.359375 -0.625q-0.234375 -0.15625 -1.1875 -0.390625q-1.296875 -0.328125 -1.796875 -0.5625q-0.484375 -0.25 -0.75 -0.65625q-0.25 -0.421875 -0.25 -0.9375q0 -0.453125 0.203125 -0.84375q0.21875 -0.40625 0.578125 -0.671875q0.28125 -0.1875 0.75 -0.328125q0.46875 -0.140625 1.015625 -0.140625q0.8125 0 1.421875 0.234375q0.609375 0.234375 0.90625 0.640625q0.296875 0.390625 0.40625 1.0625l-1.140625 0.15625q-0.078125 -0.53125 -0.453125 -0.828125q-0.375 -0.3125 -1.0625 -0.3125q-0.8125 0 -1.15625 0.265625q-0.34375 0.265625 -0.34375 0.625q0 0.234375 0.140625 0.421875q0.15625 0.1875 0.453125 0.3125q0.171875 0.0625 1.03125 0.296875q1.25 0.328125 1.734375 0.546875q0.5 0.203125 0.78125 0.609375q0.28125 0.40625 0.28125 1.0q0 0.59375 -0.34375 1.109375q-0.34375 0.515625 -1.0 0.796875q-0.640625 0.28125 -1.453125 0.28125q-1.34375 0 -2.046875 -0.5625q-0.703125 -0.5625 -0.90625 -1.65625zm6.6953125 -1.390625q0 -1.921875 1.078125 -2.84375q0.890625 -0.765625 2.171875 -0.765625q1.421875 0 2.328125 0.9375q0.90625 0.921875 0.90625 2.578125q0 1.328125 -0.40625 2.09375q-0.390625 0.765625 -1.15625 1.1875q-0.765625 0.421875 -1.671875 0.421875q-1.453125 0 -2.359375 -0.921875q-0.890625 -0.9375 -0.890625 -2.6875zm1.203125 0q0 1.328125 0.578125 1.984375q0.59375 0.65625 1.46875 0.65625q0.875 0 1.453125 -0.65625q0.578125 -0.671875 0.578125 -2.03125q0 -1.28125 -0.59375 -1.9375q-0.578125 -0.65625 -1.4375 -0.65625q-0.875 0 -1.46875 0.65625q-0.578125 0.65625 -0.578125 1.984375zm6.6468506 3.453125l0 -6.90625l1.0625 0l0 0.984375q0.75 -1.140625 2.1875 -1.140625q0.625 0 1.15625 0.21875q0.53125 0.21875 0.78125 0.59375q0.265625 0.359375 0.375 0.859375q0.0625 0.328125 0.0625 1.140625l0 4.25l-1.171875 0l0 -4.203125q0 -0.71875 -0.140625 -1.0625q-0.140625 -0.359375 -0.484375 -0.5625q-0.34375 -0.21875 -0.8125 -0.21875q-0.75 0 -1.296875 0.46875q-0.546875 0.46875 -0.546875 1.796875l0 3.78125l-1.171875 0z" fill-rule="nonzero"/><path fill="#000000" d="m471.30063 454.21384l0 -0.875q-0.65625 1.03125 -1.9375 1.03125q-0.8125 0 -1.515625 -0.453125q-0.6875 -0.453125 -1.078125 -1.265625q-0.375 -0.828125 -0.375 -1.890625q0 -1.03125 0.34375 -1.875q0.34375 -0.84375 1.03125 -1.28125q0.703125 -0.453125 1.546875 -0.453125q0.625 0 1.109375 0.265625q0.5 0.25 0.796875 0.671875l0 -3.421875l1.171875 0l0 9.546875l-1.09375 0zm-3.703125 -3.453125q0 1.328125 0.5625 1.984375q0.5625 0.65625 1.328125 0.65625q0.765625 0 1.296875 -0.625q0.53125 -0.625 0.53125 -1.90625q0 -1.421875 -0.546875 -2.078125q-0.546875 -0.671875 -1.34375 -0.671875q-0.78125 0 -1.3125 0.640625q-0.515625 0.625 -0.515625 2.0zm11.146851 2.59375q-0.65625 0.5625 -1.265625 0.796875q-0.59375 0.21875 -1.28125 0.21875q-1.140625 0 -1.75 -0.546875q-0.609375 -0.5625 -0.609375 -1.4375q0 -0.5 0.21875 -0.921875q0.234375 -0.421875 0.609375 -0.671875q0.375 -0.25 0.84375 -0.390625q0.34375 -0.078125 1.046875 -0.171875q1.421875 -0.171875 2.09375 -0.40625q0 -0.234375 0 -0.296875q0 -0.71875 -0.328125 -1.015625q-0.453125 -0.390625 -1.34375 -0.390625q-0.8125 0 -1.21875 0.296875q-0.390625 0.28125 -0.578125 1.015625l-1.140625 -0.15625q0.15625 -0.734375 0.515625 -1.1875q0.359375 -0.453125 1.03125 -0.6875q0.671875 -0.25 1.5625 -0.25q0.890625 0 1.4375 0.203125q0.5625 0.203125 0.8125 0.53125q0.265625 0.3125 0.375 0.796875q0.046875 0.296875 0.046875 1.078125l0 1.5625q0 1.625 0.078125 2.0625q0.078125 0.4375 0.296875 0.828125l-1.21875 0q-0.1875 -0.359375 -0.234375 -0.859375zm-0.09375 -2.609375q-0.640625 0.265625 -1.921875 0.4375q-0.71875 0.109375 -1.015625 0.25q-0.296875 0.125 -0.46875 0.375q-0.15625 0.25 -0.15625 0.546875q0 0.46875 0.34375 0.78125q0.359375 0.3125 1.046875 0.3125q0.671875 0 1.203125 -0.296875q0.53125 -0.296875 0.78125 -0.8125q0.1875 -0.390625 0.1875 -1.171875l0 -0.421875zm5.5531006 2.421875l0.171875 1.03125q-0.5 0.109375 -0.890625 0.109375q-0.640625 0 -1.0 -0.203125q-0.34375 -0.203125 -0.484375 -0.53125q-0.140625 -0.328125 -0.140625 -1.390625l0 -3.96875l-0.859375 0l0 -0.90625l0.859375 0l0 -1.71875l1.171875 -0.703125l0 2.421875l1.171875 0l0 0.90625l-1.171875 0l0 4.046875q0 0.5 0.046875 0.640625q0.0625 0.140625 0.203125 0.234375q0.140625 0.078125 0.40625 0.078125q0.203125 0 0.515625 -0.046875zm5.6560974 0.1875q-0.65625 0.5625 -1.265625 0.796875q-0.59375 0.21875 -1.28125 0.21875q-1.140625 0 -1.75 -0.546875q-0.609375 -0.5625 -0.609375 -1.4375q0 -0.5 0.21875 -0.921875q0.234375 -0.421875 0.609375 -0.671875q0.375 -0.25 0.84375 -0.390625q0.34375 -0.078125 1.046875 -0.171875q1.421875 -0.171875 2.09375 -0.40625q0 -0.234375 0 -0.296875q0 -0.71875 -0.328125 -1.015625q-0.453125 -0.390625 -1.34375 -0.390625q-0.8125 0 -1.21875 0.296875q-0.390625 0.28125 -0.578125 1.015625l-1.140625 -0.15625q0.15625 -0.734375 0.515625 -1.1875q0.359375 -0.453125 1.03125 -0.6875q0.671875 -0.25 1.5625 -0.25q0.890625 0 1.4375 0.203125q0.5625 0.203125 0.8125 0.53125q0.265625 0.3125 0.375 0.796875q0.046875 0.296875 0.046875 1.078125l0 1.5625q0 1.625 0.078125 2.0625q0.078125 0.4375 0.296875 0.828125l-1.21875 0q-0.1875 -0.359375 -0.234375 -0.859375zm-0.09375 -2.609375q-0.640625 0.265625 -1.921875 0.4375q-0.71875 0.109375 -1.015625 0.25q-0.296875 0.125 -0.46875 0.375q-0.15625 0.25 -0.15625 0.546875q0 0.46875 0.34375 0.78125q0.359375 0.3125 1.046875 0.3125q0.671875 0 1.203125 -0.296875q0.53125 -0.296875 0.78125 -0.8125q0.1875 -0.390625 0.1875 -1.171875l0 -0.421875zm4.0687256 3.46875l-1.078125 0l0 -9.546875l1.171875 0l0 3.40625q0.734375 -0.921875 1.890625 -0.921875q0.640625 0 1.203125 0.265625q0.578125 0.25 0.9375 0.71875q0.375 0.453125 0.5781555 1.109375q0.203125 0.65625 0.203125 1.40625q0 1.78125 -0.8750305 2.75q-0.875 0.96875 -2.109375 0.96875q-1.21875 0 -1.921875 -1.015625l0 0.859375zm0 -3.5q0 1.234375 0.328125 1.78125q0.5625 0.90625 1.5 0.90625q0.765625 0 1.328125 -0.65625q0.5625 -0.671875 0.5625 -2.0q0 -1.34375 -0.546875 -1.984375q-0.53125 -0.65625 -1.296875 -0.65625q-0.765625 0 -1.328125 0.671875q-0.546875 0.671875 -0.546875 1.9375zm10.850006 2.640625q-0.65625 0.5625 -1.265625 0.796875q-0.59375 0.21875 -1.28125 0.21875q-1.140625 0 -1.75 -0.546875q-0.609375 -0.5625 -0.609375 -1.4375q0 -0.5 0.21875 -0.921875q0.234375 -0.421875 0.609375 -0.671875q0.375 -0.25 0.84375 -0.390625q0.34375 -0.078125 1.046875 -0.171875q1.421875 -0.171875 2.09375 -0.40625q0 -0.234375 0 -0.296875q0 -0.71875 -0.328125 -1.015625q-0.453125 -0.390625 -1.34375 -0.390625q-0.8125 0 -1.21875 0.296875q-0.390625 0.28125 -0.578125 1.015625l-1.140625 -0.15625q0.15625 -0.734375 0.515625 -1.1875q0.359375 -0.453125 1.03125 -0.6875q0.671875 -0.25 1.5625 -0.25q0.890625 0 1.4375 0.203125q0.5625 0.203125 0.8125 0.53125q0.265625 0.3125 0.375 0.796875q0.046875 0.296875 0.046875 1.078125l0 1.5625q0 1.625 0.078125 2.0625q0.078125 0.4375 0.296875 0.828125l-1.21875 0q-0.1875 -0.359375 -0.234375 -0.859375zm-0.09375 -2.609375q-0.640625 0.265625 -1.921875 0.4375q-0.71875 0.109375 -1.015625 0.25q-0.296875 0.125 -0.46875 0.375q-0.15625 0.25 -0.15625 0.546875q0 0.46875 0.34375 0.78125q0.359375 0.3125 1.046875 0.3125q0.671875 0 1.203125 -0.296875q0.53125 -0.296875 0.78125 -0.8125q0.1875 -0.390625 0.1875 -1.171875l0 -0.421875zm2.5218506 1.40625l1.15625 -0.1875q0.109375 0.703125 0.546875 1.078125q0.453125 0.359375 1.25 0.359375q0.8125 0 1.203125 -0.328125q0.390625 -0.328125 0.390625 -0.765625q0 -0.390625 -0.359375 -0.625q-0.234375 -0.15625 -1.1875 -0.390625q-1.296875 -0.328125 -1.796875 -0.5625q-0.484375 -0.25 -0.75 -0.65625q-0.25 -0.421875 -0.25 -0.9375q0 -0.453125 0.203125 -0.84375q0.21875 -0.40625 0.578125 -0.671875q0.28125 -0.1875 0.75 -0.328125q0.46875 -0.140625 1.015625 -0.140625q0.8125 0 1.421875 0.234375q0.609375 0.234375 0.9062195 0.640625q0.296875 0.390625 0.40625 1.0625l-1.1405945 0.15625q-0.078125 -0.53125 -0.453125 -0.828125q-0.375 -0.3125 -1.0625 -0.3125q-0.8125 0 -1.15625 0.265625q-0.34375 0.265625 -0.34375 0.625q0 0.234375 0.140625 0.421875q0.15625 0.1875 0.453125 0.3125q0.171875 0.0625 1.03125 0.296875q1.25 0.328125 1.734375 0.546875q0.49996948 0.203125 0.7812195 0.609375q0.28125 0.40625 0.28125 1.0q0 0.59375 -0.34375 1.109375q-0.34375 0.515625 -0.9999695 0.796875q-0.640625 0.28125 -1.453125 0.28125q-1.34375 0 -2.046875 -0.5625q-0.703125 -0.5625 -0.90625 -1.65625zm11.867157 -0.15625l1.203125 0.140625q-0.28125 1.0625 -1.0625 1.65625q-0.765625 0.578125 -1.96875 0.578125q-1.515625 0 -2.40625 -0.9375q-0.890625 -0.9375 -0.890625 -2.609375q0 -1.75 0.890625 -2.703125q0.90625 -0.96875 2.34375 -0.96875q1.390625 0 2.265625 0.9375q0.875 0.9375 0.875 2.65625q0 0.109375 0 0.3125l-5.15625 0q0.0625 1.140625 0.640625 1.75q0.578125 0.59375 1.4375 0.59375q0.65625 0 1.109375 -0.328125q0.453125 -0.34375 0.71875 -1.078125zm-3.84375 -1.90625l3.859375 0q-0.078125 -0.859375 -0.4375 -1.296875q-0.5625 -0.6875 -1.453125 -0.6875q-0.8125 0 -1.359375 0.546875q-0.546875 0.53125 -0.609375 1.4375z" fill-rule="nonzero"/><path fill="#000000" fill-opacity="0.0" d="m493.3622 260.6299l0 -52.314957" fill-rule="evenodd"/><path stroke="#000000" stroke-width="1.0" stroke-linejoin="round" stroke-linecap="butt" d="m493.3622 254.62993l0 -40.314972" fill-rule="evenodd"/><path fill="#000000" stroke="#000000" stroke-width="1.0" stroke-linecap="butt" d="m491.71048 254.62993l1.6517334 4.538101l1.6517334 -4.538101z" fill-rule="evenodd"/><path fill="#000000" stroke="#000000" stroke-width="1.0" stroke-linecap="butt" d="m495.01395 214.31496l-1.6517334 -4.538101l-1.6517334 4.538101z" fill-rule="evenodd"/><path fill="#cfe2f3" d="m422.7638 149.92126l141.19684 0l0 58.393692l-141.19684 0z" fill-rule="evenodd"/><path stroke="#000000" stroke-width="1.0" stroke-linejoin="round" stroke-linecap="butt" d="m422.7638 149.92126l141.19684 0l0 58.393692l-141.19684 0z" fill-rule="evenodd"/><path fill="#000000" d="m456.31354 182.49123l1.609375 0.21875q-0.265625 1.65625 -1.359375 2.609375q-1.078125 0.9375 -2.671875 0.9375q-1.984375 0 -3.1875 -1.296875q-1.203125 -1.296875 -1.203125 -3.71875q0 -1.578125 0.515625 -2.75q0.515625 -1.171875 1.578125 -1.75q1.0625 -0.59375 2.3125 -0.59375q1.578125 0 2.578125 0.796875q1.0 0.796875 1.28125 2.265625l-1.59375 0.234375q-0.234375 -0.96875 -0.8125 -1.453125q-0.578125 -0.5 -1.390625 -0.5q-1.234375 0 -2.015625 0.890625q-0.78125 0.890625 -0.78125 2.8125q0 1.953125 0.75 2.84375q0.75 0.875 1.953125 0.875q0.96875 0 1.609375 -0.59375q0.65625 -0.59375 0.828125 -1.828125zm2.40625 -1.296875q0 -2.6875 1.484375 -3.96875q1.25 -1.078125 3.046875 -1.078125q2.0 0 3.265625 1.3125q1.265625 1.296875 1.265625 3.609375q0 1.859375 -0.5625 2.9375q-0.5625 1.0625 -1.640625 1.65625q-1.0625 0.59375 -2.328125 0.59375q-2.03125 0 -3.28125 -1.296875q-1.25 -1.3125 -1.25 -3.765625zm1.6875 0q0 1.859375 0.796875 2.796875q0.8125 0.921875 2.046875 0.921875q1.21875 0 2.03125 -0.921875q0.8125 -0.9375 0.8125 -2.84375q0 -1.796875 -0.8125 -2.71875q-0.8125 -0.921875 -2.03125 -0.921875q-1.234375 0 -2.046875 0.921875q-0.796875 0.90625 -0.796875 2.765625zm9.297607 4.84375l0 -9.671875l1.46875 0l0 1.375q1.0625 -1.59375 3.078125 -1.59375q0.875 0 1.609375 0.3125q0.734375 0.3125 1.09375 0.828125q0.375 0.5 0.515625 1.203125q0.09375 0.453125 0.09375 1.59375l0 5.953125l-1.640625 0l0 -5.890625q0 -1.0 -0.203125 -1.484375q-0.1875 -0.5 -0.671875 -0.796875q-0.484375 -0.296875 -1.140625 -0.296875q-1.046875 0 -1.8125 0.671875q-0.75 0.65625 -0.75 2.515625l0 5.28125l-1.640625 0zm10.766327 0l0 -8.40625l-1.453125 0l0 -1.265625l1.453125 0l0 -1.03125q0 -0.96875 0.171875 -1.453125q0.234375 -0.640625 0.828125 -1.03125q0.59375 -0.390625 1.671875 -0.390625q0.6875 0 1.53125 0.15625l-0.25 1.4375q-0.5 -0.09375 -0.953125 -0.09375q-0.75 0 -1.0625 0.328125q-0.3125 0.3125 -0.3125 1.1875l0 0.890625l1.890625 0l0 1.265625l-1.890625 0l0 8.40625l-1.625 0zm4.792694 -11.46875l0 -1.890625l1.640625 0l0 1.890625l-1.640625 0zm0 11.46875l0 -9.671875l1.640625 0l0 9.671875l-1.640625 0zm3.832306 0.796875l1.59375 0.234375q0.109375 0.75 0.5625 1.078125q0.609375 0.453125 1.671875 0.453125q1.140625 0 1.75 -0.453125q0.625 -0.453125 0.84375 -1.265625q0.125 -0.5 0.109375 -2.109375q-1.0625 1.265625 -2.671875 1.265625q-2.0 0 -3.09375 -1.4375q-1.09375 -1.4375 -1.09375 -3.453125q0 -1.390625 0.5 -2.5625q0.515625 -1.171875 1.453125 -1.796875q0.953125 -0.640625 2.25 -0.640625q1.703125 0 2.8125 1.375l0 -1.15625l1.515625 0l0 8.359375q0 2.265625 -0.46875 3.203125q-0.453125 0.9375 -1.453125 1.484375q-0.984375 0.546875 -2.453125 0.546875q-1.71875 0 -2.796875 -0.78125q-1.0625 -0.765625 -1.03125 -2.34375zm1.359375 -5.8125q0 1.90625 0.75 2.78125q0.765625 0.875 1.90625 0.875q1.125 0 1.890625 -0.859375q0.765625 -0.875 0.765625 -2.734375q0 -1.78125 -0.796875 -2.671875q-0.78125 -0.90625 -1.890625 -0.90625q-1.09375 0 -1.859375 0.890625q-0.765625 0.875 -0.765625 2.625zm9.781982 5.015625l0 -1.875l1.875 0l0 1.875l-1.875 0zm4.7145386 -11.453125l0 -1.90625l1.640625 0l0 1.90625l-1.640625 0zm-2.078125 15.203125l0.3125 -1.390625q0.5 0.125 0.78125 0.125q0.5 0 0.734375 -0.328125q0.25 -0.328125 0.25 -1.671875l0 -10.15625l1.640625 0l0 10.203125q0 1.78125 -0.46875 2.484375q-0.59375 0.90625 -1.96875 0.90625q-0.65625 0 -1.28125 -0.171875zm5.5823364 -6.640625l1.625 -0.25q0.125 0.96875 0.75 1.5q0.625 0.515625 1.7499695 0.515625q1.125 0 1.671875 -0.453125q0.546875 -0.46875 0.546875 -1.09375q0 -0.546875 -0.484375 -0.875q-0.328125 -0.21875 -1.671875 -0.546875q-1.8124695 -0.46875 -2.5155945 -0.796875q-0.6875 -0.328125 -1.046875 -0.90625q-0.359375 -0.59375 -0.359375 -1.3125q0 -0.640625 0.296875 -1.1875q0.296875 -0.5625 0.8125 -0.921875q0.375 -0.28125 1.03125 -0.46875q0.671875 -0.203125 1.4218445 -0.203125q1.140625 0 2.0 0.328125q0.859375 0.328125 1.265625 0.890625q0.421875 0.5625 0.578125 1.5l-1.609375 0.21875q-0.109375 -0.75 -0.640625 -1.171875q-0.515625 -0.421875 -1.46875 -0.421875q-1.1405945 0 -1.6249695 0.375q-0.46875 0.375 -0.46875 0.875q0 0.3125 0.1875 0.578125q0.203125 0.265625 0.640625 0.4375q0.234375 0.09375 1.4374695 0.421875q1.75 0.453125 2.4375 0.75q0.6875 0.296875 1.078125 0.859375q0.390625 0.5625 0.390625 1.40625q0 0.828125 -0.484375 1.546875q-0.46875 0.71875 -1.375 1.125q-0.90625 0.390625 -2.046875 0.390625q-1.8749695 0 -2.8749695 -0.78125q-0.984375 -0.78125 -1.25 -2.328125zm9.3749695 -1.953125q0 -2.6875 1.484375 -3.96875q1.25 -1.078125 3.046875 -1.078125q2.0 0 3.265625 1.3125q1.265625 1.296875 1.265625 3.609375q0 1.859375 -0.5625 2.9375q-0.5625 1.0625 -1.640625 1.65625q-1.0625 0.59375 -2.328125 0.59375q-2.03125 0 -3.28125 -1.296875q-1.25 -1.3125 -1.25 -3.765625zm1.6875 0q0 1.859375 0.796875 2.796875q0.8125 0.921875 2.046875 0.921875q1.21875 0 2.03125 -0.921875q0.8125 -0.9375 0.8125 -2.84375q0 -1.796875 -0.8125 -2.71875q-0.8125 -0.921875 -2.03125 -0.921875q-1.234375 0 -2.046875 0.921875q-0.796875 0.90625 -0.796875 2.765625zm9.297607 4.84375l0 -9.671875l1.46875 0l0 1.375q1.0625 -1.59375 3.078125 -1.59375q0.875 0 1.609375 0.3125q0.734375 0.3125 1.09375 0.828125q0.375 0.5 0.515625 1.203125q0.09375 0.453125 0.09375 1.59375l0 5.953125l-1.640625 0l0 -5.890625q0 -1.0 -0.203125 -1.484375q-0.1875 -0.5 -0.671875 -0.796875q-0.484375 -0.296875 -1.140625 -0.296875q-1.046875 0 -1.8125 0.671875q-0.75 0.65625 -0.75 2.515625l0 5.28125l-1.640625 0z" fill-rule="nonzero"/><path fill="#ffffff" d="m131.05774 273.63846l117.6693 0l0 73.35434l-117.6693 0z" fill-rule="evenodd"/><path stroke="#000000" stroke-width="1.0" stroke-linejoin="round" stroke-linecap="butt" d="m131.05774 273.63846l117.6693 0l0 73.35434l-117.6693 0z" fill-rule="evenodd"/><path fill="#000000" d="m166.851 307.11563l0 -9.546875l3.59375 0q0.953125 0 1.453125 0.09375q0.703125 0.125 1.171875 0.453125q0.484375 0.328125 0.765625 0.921875q0.296875 0.59375 0.296875 1.296875q0 1.21875 -0.78125 2.0625q-0.765625 0.84375 -2.796875 0.84375l-2.4375 0l0 3.875l-1.265625 0zm1.265625 -5.0l2.453125 0q1.234375 0 1.75 -0.453125q0.515625 -0.46875 0.515625 -1.28125q0 -0.609375 -0.3125 -1.03125q-0.296875 -0.421875 -0.796875 -0.5625q-0.3125 -0.09375 -1.171875 -0.09375l-2.4375 0l0 3.421875zm13.87413 -4.546875l1.265625 0l0 5.515625q0 1.4375 -0.328125 2.296875q-0.3125 0.84375 -1.171875 1.375q-0.84375 0.515625 -2.21875 0.515625q-1.34375 0 -2.203125 -0.453125q-0.84375 -0.46875 -1.21875 -1.34375q-0.359375 -0.875 -0.359375 -2.390625l0 -5.515625l1.265625 0l0 5.515625q0 1.234375 0.21875 1.828125q0.234375 0.59375 0.796875 0.921875q0.5625 0.3125 1.390625 0.3125q1.390625 0 1.96875 -0.625q0.59375 -0.640625 0.59375 -2.4375l0 -5.515625zm3.3126526 9.546875l0 -9.546875l3.59375 0q1.09375 0 1.75 0.296875q0.65625 0.28125 1.03125 0.890625q0.375 0.609375 0.375 1.265625q0 0.609375 -0.34375 1.15625q-0.328125 0.53125 -0.984375 0.859375q0.859375 0.25 1.328125 0.875q0.46875 0.609375 0.46875 1.4375q0 0.671875 -0.296875 1.25q-0.28125 0.578125 -0.703125 0.890625q-0.40625 0.3125 -1.03125 0.46875q-0.625 0.15625 -1.546875 0.15625l-3.640625 0zm1.265625 -5.53125l2.0625 0q0.84375 0 1.203125 -0.109375q0.484375 -0.140625 0.71875 -0.46875q0.25 -0.34375 0.25 -0.84375q0 -0.46875 -0.234375 -0.828125q-0.21875 -0.359375 -0.640625 -0.5q-0.421875 -0.140625 -1.453125 -0.140625l-1.90625 0l0 2.890625zm0 4.40625l2.375 0q0.609375 0 0.859375 -0.046875q0.4375 -0.078125 0.734375 -0.25q0.296875 -0.1875 0.484375 -0.53125q0.1875 -0.359375 0.1875 -0.8125q0 -0.53125 -0.28125 -0.921875q-0.265625 -0.40625 -0.75 -0.5625q-0.484375 -0.15625 -1.40625 -0.15625l-2.203125 0l0 3.28125zm7.6241302 1.125l0 -9.546875l1.265625 0l0 8.421875l4.703125 0l0 1.125l-5.96875 0zm7.6937256 0l0 -9.546875l1.25 0l0 9.546875l-1.25 0zm10.281113 -3.34375l1.265625 0.3125q-0.390625 1.5625 -1.421875 2.375q-1.03125 0.8125 -2.53125 0.8125q-1.53125 0 -2.5 -0.625q-0.96875 -0.625 -1.484375 -1.8125q-0.5 -1.1875 -0.5 -2.5625q0 -1.484375 0.5625 -2.59375q0.578125 -1.109375 1.625 -1.6875q1.0625 -0.578125 2.328125 -0.578125q1.421875 0 2.390625 0.734375q0.984375 0.71875 1.375 2.046875l-1.25 0.296875q-0.328125 -1.046875 -0.96875 -1.515625q-0.625 -0.484375 -1.578125 -0.484375q-1.09375 0 -1.84375 0.53125q-0.734375 0.53125 -1.03125 1.421875q-0.296875 0.875 -0.296875 1.828125q0 1.21875 0.34375 2.125q0.359375 0.90625 1.109375 1.359375q0.75 0.4375 1.625 0.4375q1.0625 0 1.796875 -0.609375q0.734375 -0.609375 0.984375 -1.8125z" fill-rule="nonzero"/><path fill="#000000" d="m148.51518 323.11563l-2.53125 -9.546875l1.296875 0l1.453125 6.265625q0.234375 0.984375 0.40625 1.953125q0.359375 -1.53125 0.421875 -1.765625l1.828125 -6.453125l1.515625 0l1.375 4.828125q0.515625 1.796875 0.734375 3.390625q0.1875 -0.90625 0.484375 -2.078125l1.484375 -6.140625l1.28125 0l-2.625 9.546875l-1.21875 0l-2.0 -7.265625q-0.265625 -0.921875 -0.3125 -1.125q-0.140625 0.65625 -0.28125 1.125l-2.015625 7.265625l-1.296875 0zm9.381805 0l3.65625 -9.546875l1.359375 0l3.90625 9.546875l-1.4375 0l-1.109375 -2.890625l-3.984375 0l-1.046875 2.890625l-1.34375 0zm2.75 -3.921875l3.234375 0l-1.0 -2.640625q-0.453125 -1.203125 -0.671875 -1.96875q-0.1875 0.90625 -0.515625 1.8125l-1.046875 2.796875zm7.1241302 3.921875l0 -9.546875l1.265625 0l0 8.421875l4.703125 0l0 1.125l-5.96875 0zm7.4124756 0l0 -9.546875l1.265625 0l0 8.421875l4.703125 0l0 1.125l-5.96875 0zm7.4906006 0l0 -9.546875l6.90625 0l0 1.125l-5.640625 0l0 2.921875l5.28125 0l0 1.125l-5.28125 0l0 3.25l5.859375 0l0 1.125l-7.125 0zm11.296005 0l0 -8.421875l-3.140625 0l0 -1.125l7.5625 0l0 1.125l-3.15625 0l0 8.421875l-1.265625 0zm9.40033 0l0 -9.546875l1.25 0l0 9.546875l-1.25 0zm3.4686127 0l0 -9.546875l1.296875 0l5.015625 7.5l0 -7.5l1.203125 0l0 9.546875l-1.296875 0l-5.015625 -7.5l0 7.5l-1.203125 0zm9.703278 0l0 -9.546875l6.4375 0l0 1.125l-5.171875 0l0 2.96875l4.46875 0l0 1.125l-4.46875 0l0 4.328125l-1.265625 0zm7.6882324 -4.640625q0 -2.375 1.28125 -3.71875q1.28125 -1.34375 3.296875 -1.34375q1.3125 0 2.375 0.625q1.0625 0.625 1.609375 1.765625q0.5625 1.125 0.5625 2.5625q0 1.4375 -0.59375 2.59375q-0.578125 1.140625 -1.65625 1.734375q-1.0625 0.578125 -2.3125 0.578125q-1.34375 0 -2.40625 -0.640625q-1.0625 -0.65625 -1.609375 -1.78125q-0.546875 -1.125 -0.546875 -2.375zm1.3125 0.015625q0 1.71875 0.921875 2.71875q0.921875 0.984375 2.328125 0.984375q1.421875 0 2.34375 -1.0q0.921875 -1.0 0.921875 -2.84375q0 -1.15625 -0.40625 -2.03125q-0.390625 -0.875 -1.15625 -1.34375q-0.75 -0.484375 -1.6875 -0.484375q-1.34375 0 -2.3125 0.921875q-0.953125 0.921875 -0.953125 3.078125z" fill-rule="nonzero"/><path fill="#000000" fill-opacity="0.0" d="m248.72704 310.31564l134.80315 0" fill-rule="evenodd"/><path stroke="#000000" stroke-width="1.0" stroke-linejoin="round" stroke-linecap="butt" d="m248.72704 310.31564l128.80315 0" fill-rule="evenodd"/><path fill="#000000" stroke="#000000" stroke-width="1.0" stroke-linecap="butt" d="m377.53018 311.96738l4.538086 -1.6517334l-4.538086 -1.6517334z" fill-rule="evenodd"/><path fill="#ffffff" d="m131.05774 381.66995l117.6693 0l0 73.35434l-117.6693 0z" fill-rule="evenodd"/><path stroke="#000000" stroke-width="1.0" stroke-linejoin="round" stroke-linecap="butt" d="m131.05774 381.66995l117.6693 0l0 73.35434l-117.6693 0z" fill-rule="evenodd"/><path fill="#000000" d="m166.851 415.14713l0 -9.546875l3.59375 0q0.953125 0 1.453125 0.09375q0.703125 0.125 1.171875 0.453125q0.484375 0.328125 0.765625 0.921875q0.296875 0.59375 0.296875 1.296875q0 1.21875 -0.78125 2.0625q-0.765625 0.84375 -2.796875 0.84375l-2.4375 0l0 3.875l-1.265625 0zm1.265625 -5.0l2.453125 0q1.234375 0 1.75 -0.453125q0.515625 -0.46875 0.515625 -1.28125q0 -0.609375 -0.3125 -1.03125q-0.296875 -0.421875 -0.796875 -0.5625q-0.3125 -0.09375 -1.171875 -0.09375l-2.4375 0l0 3.421875zm13.87413 -4.546875l1.265625 0l0 5.515625q0 1.4375 -0.328125 2.296875q-0.3125 0.84375 -1.171875 1.375q-0.84375 0.515625 -2.21875 0.515625q-1.34375 0 -2.203125 -0.453125q-0.84375 -0.46875 -1.21875 -1.34375q-0.359375 -0.875 -0.359375 -2.390625l0 -5.515625l1.265625 0l0 5.515625q0 1.234375 0.21875 1.828125q0.234375 0.59375 0.796875 0.921875q0.5625 0.3125 1.390625 0.3125q1.390625 0 1.96875 -0.625q0.59375 -0.640625 0.59375 -2.4375l0 -5.515625zm3.3126526 9.546875l0 -9.546875l3.59375 0q1.09375 0 1.75 0.296875q0.65625 0.28125 1.03125 0.890625q0.375 0.609375 0.375 1.265625q0 0.609375 -0.34375 1.15625q-0.328125 0.53125 -0.984375 0.859375q0.859375 0.25 1.328125 0.875q0.46875 0.609375 0.46875 1.4375q0 0.671875 -0.296875 1.25q-0.28125 0.578125 -0.703125 0.890625q-0.40625 0.3125 -1.03125 0.46875q-0.625 0.15625 -1.546875 0.15625l-3.640625 0zm1.265625 -5.53125l2.0625 0q0.84375 0 1.203125 -0.109375q0.484375 -0.140625 0.71875 -0.46875q0.25 -0.34375 0.25 -0.84375q0 -0.46875 -0.234375 -0.828125q-0.21875 -0.359375 -0.640625 -0.5q-0.421875 -0.140625 -1.453125 -0.140625l-1.90625 0l0 2.890625zm0 4.40625l2.375 0q0.609375 0 0.859375 -0.046875q0.4375 -0.078125 0.734375 -0.25q0.296875 -0.1875 0.484375 -0.53125q0.1875 -0.359375 0.1875 -0.8125q0 -0.53125 -0.28125 -0.921875q-0.265625 -0.40625 -0.75 -0.5625q-0.484375 -0.15625 -1.40625 -0.15625l-2.203125 0l0 3.28125zm7.6241302 1.125l0 -9.546875l1.265625 0l0 8.421875l4.703125 0l0 1.125l-5.96875 0zm7.6937256 0l0 -9.546875l1.25 0l0 9.546875l-1.25 0zm10.281113 -3.34375l1.265625 0.3125q-0.390625 1.5625 -1.421875 2.375q-1.03125 0.8125 -2.53125 0.8125q-1.53125 0 -2.5 -0.625q-0.96875 -0.625 -1.484375 -1.8125q-0.5 -1.1875 -0.5 -2.5625q0 -1.484375 0.5625 -2.59375q0.578125 -1.109375 1.625 -1.6875q1.0625 -0.578125 2.328125 -0.578125q1.421875 0 2.390625 0.734375q0.984375 0.71875 1.375 2.046875l-1.25 0.296875q-0.328125 -1.046875 -0.96875 -1.515625q-0.625 -0.484375 -1.578125 -0.484375q-1.09375 0 -1.84375 0.53125q-0.734375 0.53125 -1.03125 1.421875q-0.296875 0.875 -0.296875 1.828125q0 1.21875 0.34375 2.125q0.359375 0.90625 1.109375 1.359375q0.75 0.4375 1.625 0.4375q1.0625 0 1.796875 -0.609375q0.734375 -0.609375 0.984375 -1.8125z" fill-rule="nonzero"/><path fill="#000000" d="m148.51518 431.14713l-2.53125 -9.546875l1.296875 0l1.453125 6.265625q0.234375 0.984375 0.40625 1.953125q0.359375 -1.53125 0.421875 -1.765625l1.828125 -6.453125l1.515625 0l1.375 4.828125q0.515625 1.796875 0.734375 3.390625q0.1875 -0.90625 0.484375 -2.078125l1.484375 -6.140625l1.28125 0l-2.625 9.546875l-1.21875 0l-2.0 -7.265625q-0.265625 -0.921875 -0.3125 -1.125q-0.140625 0.65625 -0.28125 1.125l-2.015625 7.265625l-1.296875 0zm9.381805 0l3.65625 -9.546875l1.359375 0l3.90625 9.546875l-1.4375 0l-1.109375 -2.890625l-3.984375 0l-1.046875 2.890625l-1.34375 0zm2.75 -3.921875l3.234375 0l-1.0 -2.640625q-0.453125 -1.203125 -0.671875 -1.96875q-0.1875 0.90625 -0.515625 1.8125l-1.046875 2.796875zm7.1241302 3.921875l0 -9.546875l1.265625 0l0 8.421875l4.703125 0l0 1.125l-5.96875 0zm7.4124756 0l0 -9.546875l1.265625 0l0 8.421875l4.703125 0l0 1.125l-5.96875 0zm7.4906006 0l0 -9.546875l6.90625 0l0 1.125l-5.640625 0l0 2.921875l5.28125 0l0 1.125l-5.28125 0l0 3.25l5.859375 0l0 1.125l-7.125 0zm11.296005 0l0 -8.421875l-3.140625 0l0 -1.125l7.5625 0l0 1.125l-3.15625 0l0 8.421875l-1.265625 0zm9.40033 0l0 -9.546875l1.25 0l0 9.546875l-1.25 0zm3.4686127 0l0 -9.546875l1.296875 0l5.015625 7.5l0 -7.5l1.203125 0l0 9.546875l-1.296875 0l-5.015625 -7.5l0 7.5l-1.203125 0zm9.703278 0l0 -9.546875l6.4375 0l0 1.125l-5.171875 0l0 2.96875l4.46875 0l0 1.125l-4.46875 0l0 4.328125l-1.265625 0zm7.6882324 -4.640625q0 -2.375 1.28125 -3.71875q1.28125 -1.34375 3.296875 -1.34375q1.3125 0 2.375 0.625q1.0625 0.625 1.609375 1.765625q0.5625 1.125 0.5625 2.5625q0 1.4375 -0.59375 2.59375q-0.578125 1.140625 -1.65625 1.734375q-1.0625 0.578125 -2.3125 0.578125q-1.34375 0 -2.40625 -0.640625q-1.0625 -0.65625 -1.609375 -1.78125q-0.546875 -1.125 -0.546875 -2.375zm1.3125 0.015625q0 1.71875 0.921875 2.71875q0.921875 0.984375 2.328125 0.984375q1.421875 0 2.34375 -1.0q0.921875 -1.0 0.921875 -2.84375q0 -1.15625 -0.40625 -2.03125q-0.390625 -0.875 -1.15625 -1.34375q-0.75 -0.484375 -1.6875 -0.484375q-1.34375 0 -2.3125 0.921875q-0.953125 0.921875 -0.953125 3.078125z" fill-rule="nonzero"/><path fill="#000000" fill-opacity="0.0" d="m248.72704 418.34714l134.80315 -108.031494" fill-rule="evenodd"/><path stroke="#000000" stroke-width="1.0" stroke-linejoin="round" stroke-linecap="butt" d="m248.72704 418.3471l130.12114 -104.2793" fill-rule="evenodd"/><path fill="#000000" stroke="#000000" stroke-width="1.0" stroke-linecap="butt" d="m379.8811 315.35672l2.5083008 -4.1268616l-4.5741577 1.5490417z" fill-rule="evenodd"/><path fill="#efefef" d="m678.1496 217.07086l117.66931 0l0 78.456696l-117.66931 0z" fill-rule="evenodd"/><path stroke="#000000" stroke-width="1.0" stroke-linejoin="round" stroke-linecap="butt" stroke-dasharray="1.0,3.0" d="m678.1496 217.07086l117.66931 0l0 78.456696l-117.66931 0z" fill-rule="evenodd"/><path fill="#999999" d="m717.1245 236.91171l0 -1.359375l1.171875 0l0 1.359375l-1.171875 0zm0 8.1875l0 -6.90625l1.171875 0l0 6.90625l-1.171875 0zm3.1016846 0l0 -9.546875l3.59375 0q0.953125 0 1.453125 0.09375q0.703125 0.125 1.171875 0.453125q0.484375 0.328125 0.765625 0.921875q0.296875 0.59375 0.296875 1.296875q0 1.21875 -0.78125 2.0625q-0.765625 0.84375 -2.796875 0.84375l-2.4375 0l0 3.875l-1.265625 0zm1.265625 -5.0l2.453125 0q1.234375 0 1.75 -0.453125q0.515625 -0.46875 0.515625 -1.28125q0 -0.609375 -0.3125 -1.03125q-0.296875 -0.421875 -0.796875 -0.5625q-0.3125 -0.09375 -1.171875 -0.09375l-2.4375 0l0 3.421875zm7.4678955 5.0l0 -9.546875l1.171875 0l0 3.421875q0.828125 -0.9375 2.078125 -0.9375q0.765625 0 1.328125 0.296875q0.5625 0.296875 0.8125 0.84375q0.25 0.53125 0.25 1.546875l0 4.375l-1.171875 0l0 -4.375q0 -0.890625 -0.390625 -1.28125q-0.375 -0.40625 -1.078125 -0.40625q-0.515625 0 -0.984375 0.28125q-0.453125 0.265625 -0.65625 0.734375q-0.1875 0.453125 -0.1875 1.265625l0 3.78125l-1.171875 0zm6.9749756 -3.453125q0 -1.921875 1.078125 -2.84375q0.890625 -0.765625 2.171875 -0.765625q1.421875 0 2.328125 0.9375q0.90625 0.921875 0.90625 2.578125q0 1.328125 -0.40625 2.09375q-0.390625 0.765625 -1.15625 1.1875q-0.765625 0.421875 -1.671875 0.421875q-1.453125 0 -2.359375 -0.921875q-0.890625 -0.9375 -0.890625 -2.6875zm1.203125 0q0 1.328125 0.578125 1.984375q0.59375 0.65625 1.46875 0.65625q0.875 0 1.453125 -0.65625q0.578125 -0.671875 0.578125 -2.03125q0 -1.28125 -0.59375 -1.9375q-0.578125 -0.65625 -1.4375 -0.65625q-0.875 0 -1.46875 0.65625q-0.578125 0.65625 -0.578125 1.984375zm6.6468506 3.453125l0 -6.90625l1.0625 0l0 0.984375q0.75 -1.140625 2.1875 -1.140625q0.625 0 1.15625 0.21875q0.53125 0.21875 0.78125 0.59375q0.265625 0.359375 0.375 0.859375q0.0625 0.328125 0.0625 1.140625l0 4.25l-1.171875 0l0 -4.203125q0 -0.71875 -0.140625 -1.0625q-0.140625 -0.359375 -0.484375 -0.5625q-0.34375 -0.21875 -0.8125 -0.21875q-0.75 0 -1.296875 0.46875q-0.546875 0.46875 -0.546875 1.796875l0 3.78125l-1.171875 0zm12.146851 -2.21875l1.203125 0.140625q-0.28125 1.0625 -1.0625 1.65625q-0.765625 0.578125 -1.96875 0.578125q-1.515625 0 -2.40625 -0.9375q-0.890625 -0.9375 -0.890625 -2.609375q0 -1.75 0.890625 -2.703125q0.90625 -0.96875 2.34375 -0.96875q1.390625 0 2.265625 0.9375q0.875 0.9375 0.875 2.65625q0 0.109375 0 0.3125l-5.15625 0q0.0625 1.140625 0.640625 1.75q0.578125 0.59375 1.4375 0.59375q0.65625 0 1.109375 -0.328125q0.453125 -0.34375 0.71875 -1.078125zm-3.84375 -1.90625l3.859375 0q-0.078125 -0.859375 -0.4375 -1.296875q-0.5625 -0.6875 -1.453125 -0.6875q-0.8125 0 -1.359375 0.546875q-0.546875 0.53125 -0.609375 1.4375z" fill-rule="nonzero"/><path fill="#999999" d="m725.11127 261.0992l3.65625 -9.546875l1.359375 0l3.90625 9.546875l-1.4375 0l-1.109375 -2.890625l-3.984375 0l-1.046875 2.890625l-1.34375 0zm2.75 -3.921875l3.234375 0l-1.0 -2.640625q-0.453125 -1.203125 -0.671875 -1.96875q-0.1875 0.90625 -0.515625 1.8125l-1.046875 2.796875zm7.0303955 6.578125l0 -9.5625l1.078125 0l0 0.890625q0.375 -0.53125 0.84375 -0.78125q0.484375 -0.265625 1.15625 -0.265625q0.875 0 1.546875 0.453125q0.6875 0.453125 1.03125 1.28125q0.34375 0.828125 0.34375 1.828125q0 1.046875 -0.375 1.90625q-0.375 0.84375 -1.109375 1.296875q-0.71875 0.453125 -1.53125 0.453125q-0.578125 0 -1.046875 -0.25q-0.46875 -0.25 -0.765625 -0.625l0 3.375l-1.171875 0zm1.0625 -6.078125q0 1.34375 0.53125 1.984375q0.546875 0.625 1.3125 0.625q0.78125 0 1.34375 -0.65625q0.5625 -0.65625 0.5625 -2.046875q0 -1.3125 -0.546875 -1.96875q-0.546875 -0.671875 -1.296875 -0.671875q-0.75 0 -1.328125 0.703125q-0.578125 0.703125 -0.578125 2.03125zm6.3499756 6.078125l0 -9.5625l1.078125 0l0 0.890625q0.375 -0.53125 0.84375 -0.78125q0.484375 -0.265625 1.15625 -0.265625q0.875 0 1.546875 0.453125q0.6875 0.453125 1.03125 1.28125q0.34375 0.828125 0.34375 1.828125q0 1.046875 -0.375 1.90625q-0.375 0.84375 -1.109375 1.296875q-0.71875 0.453125 -1.53125 0.453125q-0.578125 0 -1.046875 -0.25q-0.46875 -0.25 -0.765625 -0.625l0 3.375l-1.171875 0zm1.0625 -6.078125q0 1.34375 0.53125 1.984375q0.546875 0.625 1.3125 0.625q0.78125 0 1.34375 -0.65625q0.5625 -0.65625 0.5625 -2.046875q0 -1.3125 -0.546875 -1.96875q-0.546875 -0.671875 -1.296875 -0.671875q-0.75 0 -1.328125 0.703125q-0.578125 0.703125 -0.578125 2.03125z" fill-rule="nonzero"/><path fill="#999999" d="m718.63 279.9117q-0.984375 -1.234375 -1.65625 -2.875q-0.65625 -1.640625 -0.65625 -3.390625q0 -1.546875 0.5 -2.96875q0.578125 -1.640625 1.8125 -3.28125l0.828125 0q-0.78125 1.359375 -1.03125 1.9375q-0.40625 0.890625 -0.625 1.875q-0.28125 1.21875 -0.28125 2.4375q0 3.140625 1.9375 6.265625l-0.828125 0zm2.4696045 -2.8125l0 -6.0l-1.03125 0l0 -0.90625l1.03125 0l0 -0.734375q0 -0.703125 0.125 -1.046875q0.171875 -0.453125 0.59375 -0.734375q0.421875 -0.28125 1.203125 -0.28125q0.484375 0 1.09375 0.109375l-0.1875 1.03125q-0.359375 -0.0625 -0.6875 -0.0625q-0.53125 0 -0.75 0.234375q-0.21875 0.21875 -0.21875 0.84375l0 0.640625l1.34375 0l0 0.90625l-1.34375 0l0 6.0l-1.171875 0zm7.953003 0l0 -1.015625q-0.8125 1.171875 -2.1875 1.171875q-0.609375 0 -1.140625 -0.234375q-0.53125 -0.234375 -0.796875 -0.578125q-0.25 -0.359375 -0.359375 -0.875q-0.0625 -0.34375 -0.0625 -1.09375l0 -4.28125l1.171875 0l0 3.828125q0 0.921875 0.0625 1.234375q0.109375 0.46875 0.46875 0.734375q0.359375 0.25 0.890625 0.25q0.515625 0 0.984375 -0.265625q0.46875 -0.265625 0.65625 -0.734375q0.1875 -0.46875 0.1875 -1.34375l0 -3.703125l1.171875 0l0 6.90625l-1.046875 0zm5.4437256 -1.046875l0.171875 1.03125q-0.5 0.109375 -0.890625 0.109375q-0.640625 0 -1.0 -0.203125q-0.34375 -0.203125 -0.484375 -0.53125q-0.140625 -0.328125 -0.140625 -1.390625l0 -3.96875l-0.859375 0l0 -0.90625l0.859375 0l0 -1.71875l1.171875 -0.703125l0 2.421875l1.171875 0l0 0.90625l-1.171875 0l0 4.046875q0 0.5 0.046875 0.640625q0.0625 0.140625 0.203125 0.234375q0.140625 0.078125 0.40625 0.078125q0.203125 0 0.515625 -0.046875zm5.671753 1.046875l0 -1.015625q-0.8125 1.171875 -2.1875 1.171875q-0.609375 0 -1.140625 -0.234375q-0.53125 -0.234375 -0.796875 -0.578125q-0.25 -0.359375 -0.359375 -0.875q-0.0625 -0.34375 -0.0625 -1.09375l0 -4.28125l1.171875 0l0 3.828125q0 0.921875 0.0625 1.234375q0.109375 0.46875 0.46875 0.734375q0.359375 0.25 0.890625 0.25q0.515625 0 0.984375 -0.265625q0.46875 -0.265625 0.65625 -0.734375q0.1875 -0.46875 0.1875 -1.34375l0 -3.703125l1.171875 0l0 6.90625l-1.046875 0zm2.8656006 0l0 -6.90625l1.0625 0l0 1.046875q0.40625 -0.734375 0.734375 -0.96875q0.34375 -0.234375 0.765625 -0.234375q0.59375 0 1.203125 0.375l-0.40625 1.078125q-0.4375 -0.25 -0.859375 -0.25q-0.390625 0 -0.703125 0.234375q-0.296875 0.234375 -0.421875 0.640625q-0.203125 0.625 -0.203125 1.359375l0 3.625l-1.171875 0zm9.1883545 -2.21875l1.203125 0.140625q-0.28125 1.0625 -1.0625 1.65625q-0.765625 0.578125 -1.96875 0.578125q-1.515625 0 -2.40625 -0.9375q-0.890625 -0.9375 -0.890625 -2.609375q0 -1.75 0.890625 -2.703125q0.90625 -0.96875 2.34375 -0.96875q1.390625 0 2.265625 0.9375q0.875 0.9375 0.875 2.65625q0 0.109375 0 0.3125l-5.15625 0q0.0625 1.140625 0.640625 1.75q0.578125 0.59375 1.4375 0.59375q0.65625 0 1.109375 -0.328125q0.453125 -0.34375 0.71875 -1.078125zm-3.84375 -1.90625l3.859375 0q-0.078125 -0.859375 -0.4375 -1.296875q-0.5625 -0.6875 -1.453125 -0.6875q-0.8125 0 -1.359375 0.546875q-0.546875 0.53125 -0.609375 1.4375zm7.2874756 6.9375l-0.828125 0q1.9375 -3.125 1.9375 -6.265625q0 -1.21875 -0.28125 -2.421875q-0.21875 -0.984375 -0.609375 -1.875q-0.265625 -0.59375 -1.046875 -1.953125l0.828125 0q1.234375 1.640625 1.8125 3.28125q0.5 1.421875 0.5 2.96875q0 1.75 -0.671875 3.390625q-0.671875 1.640625 -1.640625 2.875z" fill-rule="nonzero"/><path fill="#000000" fill-opacity="0.0" d="m604.51184 287.85828l73.63776 -31.559052" fill-rule="evenodd"/><path stroke="#000000" stroke-width="1.0" stroke-linejoin="round" stroke-linecap="butt" stroke-dasharray="1.0,3.0" d="m610.0267 285.49475l62.608032 -26.832031" fill-rule="evenodd"/><path fill="#000000" stroke="#000000" stroke-width="1.0" stroke-linecap="butt" d="m609.37604 283.97656l-3.5205078 3.3058472l4.8217773 -0.2694702z" fill-rule="evenodd"/><path fill="#000000" stroke="#000000" stroke-width="1.0" stroke-linecap="butt" d="m673.2854 260.1809l3.5205078 -3.3058167l-4.8218384 0.2694702z" fill-rule="evenodd"/><path fill="#fff2cc" d="m503.29922 324.9239l99.87399 0l0 25.669281l-99.87399 0z" fill-rule="evenodd"/><path stroke="#000000" stroke-width="1.0" stroke-linejoin="round" stroke-linecap="butt" d="m503.29922 324.9239l99.87399 0l0 25.669281l-99.87399 0z" fill-rule="evenodd"/><path fill="#000000" d="m522.71405 342.55853l-2.53125 -9.546875l1.296875 0l1.453125 6.265625q0.234375 0.984375 0.40625 1.953125q0.359375 -1.53125 0.421875 -1.765625l1.828125 -6.453125l1.515625 0l1.375 4.828125q0.515625 1.796875 0.734375 3.390625q0.1875 -0.90625 0.484375 -2.078125l1.484375 -6.140625l1.28125 0l-2.625 9.546875l-1.21875 0l-2.0 -7.265625q-0.265625 -0.921875 -0.3125 -1.125q-0.140625 0.65625 -0.28125 1.125l-2.015625 7.265625l-1.296875 0zm15.260742 -2.21875l1.203125 0.140625q-0.28125 1.0625 -1.0625 1.65625q-0.765625 0.578125 -1.96875 0.578125q-1.515625 0 -2.40625 -0.9375q-0.890625 -0.9375 -0.890625 -2.609375q0 -1.75 0.890625 -2.703125q0.90625 -0.96875 2.34375 -0.96875q1.390625 0 2.265625 0.9375q0.875 0.9375 0.875 2.65625q0 0.109375 0 0.3125l-5.15625 0q0.0625 1.140625 0.640625 1.75q0.578125 0.59375 1.4375 0.59375q0.65625 0 1.109375 -0.328125q0.453125 -0.34375 0.71875 -1.078125zm-3.84375 -1.90625l3.859375 0q-0.078125 -0.859375 -0.4375 -1.296875q-0.5625 -0.6875 -1.453125 -0.6875q-0.8125 0 -1.359375 0.546875q-0.546875 0.53125 -0.609375 1.4375zm7.5999756 4.125l-1.078125 0l0 -9.546875l1.171875 0l0 3.40625q0.734375 -0.921875 1.890625 -0.921875q0.640625 0 1.203125 0.265625q0.578125 0.25 0.9375 0.71875q0.375 0.453125 0.578125 1.109375q0.203125 0.65625 0.203125 1.40625q0 1.78125 -0.875 2.75q-0.875 0.96875 -2.109375 0.96875q-1.21875 0 -1.921875 -1.015625l0 0.859375zm0 -3.5q0 1.234375 0.328125 1.78125q0.5625 0.90625 1.5 0.90625q0.765625 0 1.328125 -0.65625q0.5625 -0.671875 0.5625 -2.0q0 -1.34375 -0.546875 -1.984375q-0.53125 -0.65625 -1.296875 -0.65625q-0.765625 0 -1.328125 0.671875q-0.546875 0.671875 -0.546875 1.9375zm6.0531006 0.4375l1.203125 -0.109375q0.078125 0.71875 0.390625 1.1875q0.3125 0.453125 0.953125 0.734375q0.65625 0.28125 1.46875 0.28125q0.71875 0 1.265625 -0.21875q0.5625 -0.21875 0.828125 -0.578125q0.265625 -0.375 0.265625 -0.828125q0 -0.453125 -0.265625 -0.78125q-0.25 -0.328125 -0.84375 -0.5625q-0.390625 -0.15625 -1.703125 -0.46875q-1.3125 -0.3125 -1.84375 -0.59375q-0.671875 -0.359375 -1.015625 -0.890625q-0.328125 -0.53125 -0.328125 -1.1875q0 -0.71875 0.40625 -1.34375q0.40625 -0.625 1.1875 -0.953125q0.796875 -0.328125 1.765625 -0.328125q1.046875 0 1.859375 0.34375q0.8125 0.34375 1.25 1.015625q0.4375 0.65625 0.46875 1.484375l-1.203125 0.09375q-0.109375 -0.90625 -0.671875 -1.359375q-0.5625 -0.46875 -1.65625 -0.46875q-1.140625 0 -1.671875 0.421875q-0.515625 0.421875 -0.515625 1.015625q0 0.515625 0.359375 0.84375q0.375 0.328125 1.90625 0.6875q1.546875 0.34375 2.109375 0.59375q0.84375 0.390625 1.234375 0.984375q0.390625 0.578125 0.390625 1.359375q0 0.75 -0.4375 1.4375q-0.421875 0.671875 -1.25 1.046875q-0.8125 0.359375 -1.828125 0.359375q-1.296875 0 -2.171875 -0.375q-0.875 -0.375 -1.375 -1.125q-0.5 -0.765625 -0.53125 -1.71875zm13.9053955 0.84375l1.203125 0.140625q-0.28125 1.0625 -1.0625 1.65625q-0.765625 0.578125 -1.96875 0.578125q-1.515625 0 -2.40625 -0.9375q-0.890625 -0.9375 -0.890625 -2.609375q0 -1.75 0.890625 -2.703125q0.90625 -0.96875 2.34375 -0.96875q1.390625 0 2.265625 0.9375q0.875 0.9375 0.875 2.65625q0 0.109375 0 0.3125l-5.15625 0q0.0625 1.140625 0.640625 1.75q0.578125 0.59375 1.4375 0.59375q0.65625 0 1.109375 -0.328125q0.453125 -0.34375 0.71875 -1.078125zm-3.84375 -1.90625l3.859375 0q-0.078125 -0.859375 -0.4375 -1.296875q-0.5625 -0.6875 -1.453125 -0.6875q-0.8125 0 -1.359375 0.546875q-0.546875 0.53125 -0.609375 1.4375zm6.5062256 4.125l0 -6.90625l1.0625 0l0 1.046875q0.40625 -0.734375 0.734375 -0.96875q0.34375 -0.234375 0.765625 -0.234375q0.59375 0 1.203125 0.375l-0.40625 1.078125q-0.4375 -0.25 -0.859375 -0.25q-0.390625 0 -0.703125 0.234375q-0.296875 0.234375 -0.421875 0.640625q-0.203125 0.625 -0.203125 1.359375l0 3.625l-1.171875 0zm6.3758545 0l-2.625 -6.90625l1.234375 0l1.484375 4.140625q0.234375 0.65625 0.4375 1.390625q0.15625 -0.546875 0.4375 -1.3125l1.53125 -4.21875l1.21875 0l-2.625 6.90625l-1.09375 0zm9.4765625 -2.21875l1.203125 0.140625q-0.28125 1.0625 -1.0625 1.65625q-0.765625 0.578125 -1.96875 0.578125q-1.515625 0 -2.40625 -0.9375q-0.890625 -0.9375 -0.890625 -2.609375q0 -1.75 0.890625 -2.703125q0.90625 -0.96875 2.34375 -0.96875q1.390625 0 2.265625 0.9375q0.875 0.9375 0.875 2.65625q0 0.109375 0 0.3125l-5.15625 0q0.0625 1.140625 0.640625 1.75q0.578125 0.59375 1.4375 0.59375q0.65625 0 1.109375 -0.328125q0.453125 -0.34375 0.71875 -1.078125zm-3.84375 -1.90625l3.859375 0q-0.078125 -0.859375 -0.4375 -1.296875q-0.5625 -0.6875 -1.453125 -0.6875q-0.8125 0 -1.359375 0.546875q-0.546875 0.53125 -0.609375 1.4375zm6.5062256 4.125l0 -6.90625l1.0625 0l0 1.046875q0.40625 -0.734375 0.734375 -0.96875q0.34375 -0.234375 0.765625 -0.234375q0.59375 0 1.203125 0.375l-0.40625 1.078125q-0.4375 -0.25 -0.859375 -0.25q-0.390625 0 -0.703125 0.234375q-0.296875 0.234375 -0.421875 0.640625q-0.203125 0.625 -0.203125 1.359375l0 3.625l-1.171875 0z" fill-rule="nonzero"/><path fill="#fff2cc" d="m503.29922 273.6929l99.87399 0l0 25.669312l-99.87399 0z" fill-rule="evenodd"/><path stroke="#000000" stroke-width="1.0" stroke-linejoin="round" stroke-linecap="butt" stroke-dasharray="1.0,3.0" d="m503.29922 273.6929l99.87399 0l0 25.669312l-99.87399 0z" fill-rule="evenodd"/><path fill="#999999" d="m521.7355 291.32755l3.65625 -9.546875l1.359375 0l3.90625 9.546875l-1.4375 0l-1.109375 -2.890625l-3.984375 0l-1.046875 2.890625l-1.34375 0zm2.75 -3.921875l3.234375 0l-1.0 -2.640625q-0.453125 -1.203125 -0.671875 -1.96875q-0.1875 0.90625 -0.515625 1.8125l-1.046875 2.796875zm7.0303955 6.578125l0 -9.5625l1.078125 0l0 0.890625q0.375 -0.53125 0.84375 -0.78125q0.484375 -0.265625 1.15625 -0.265625q0.875 0 1.546875 0.453125q0.6875 0.453125 1.03125 1.28125q0.34375 0.828125 0.34375 1.828125q0 1.046875 -0.375 1.90625q-0.375 0.84375 -1.109375 1.296875q-0.71875 0.453125 -1.53125 0.453125q-0.578125 0 -1.046875 -0.25q-0.46875 -0.25 -0.765625 -0.625l0 3.375l-1.171875 0zm1.0625 -6.078125q0 1.34375 0.53125 1.984375q0.546875 0.625 1.3125 0.625q0.78125 0 1.34375 -0.65625q0.5625 -0.65625 0.5625 -2.046875q0 -1.3125 -0.546875 -1.96875q-0.546875 -0.671875 -1.296875 -0.671875q-0.75 0 -1.328125 0.703125q-0.578125 0.703125 -0.578125 2.03125zm6.3499756 6.078125l0 -9.5625l1.078125 0l0 0.890625q0.375 -0.53125 0.84375 -0.78125q0.484375 -0.265625 1.15625 -0.265625q0.875 0 1.546875 0.453125q0.6875 0.453125 1.03125 1.28125q0.34375 0.828125 0.34375 1.828125q0 1.046875 -0.375 1.90625q-0.375 0.84375 -1.109375 1.296875q-0.71875 0.453125 -1.53125 0.453125q-0.578125 0 -1.046875 -0.25q-0.46875 -0.25 -0.765625 -0.625l0 3.375l-1.171875 0zm1.0625 -6.078125q0 1.34375 0.53125 1.984375q0.546875 0.625 1.3125 0.625q0.78125 0 1.34375 -0.65625q0.5625 -0.65625 0.5625 -2.046875q0 -1.3125 -0.546875 -1.96875q-0.546875 -0.671875 -1.296875 -0.671875q-0.75 0 -1.328125 0.703125q-0.578125 0.703125 -0.578125 2.03125zm6.0687256 0.359375l1.203125 -0.109375q0.078125 0.71875 0.390625 1.1875q0.3125 0.453125 0.953125 0.734375q0.65625 0.28125 1.46875 0.28125q0.71875 0 1.265625 -0.21875q0.5625 -0.21875 0.828125 -0.578125q0.265625 -0.375 0.265625 -0.828125q0 -0.453125 -0.265625 -0.78125q-0.25 -0.328125 -0.84375 -0.5625q-0.390625 -0.15625 -1.703125 -0.46875q-1.3125 -0.3125 -1.84375 -0.59375q-0.671875 -0.359375 -1.015625 -0.890625q-0.328125 -0.53125 -0.328125 -1.1875q0 -0.71875 0.40625 -1.34375q0.40625 -0.625 1.1875 -0.953125q0.796875 -0.328125 1.765625 -0.328125q1.046875 0 1.859375 0.34375q0.8125 0.34375 1.25 1.015625q0.4375 0.65625 0.46875 1.484375l-1.203125 0.09375q-0.109375 -0.90625 -0.671875 -1.359375q-0.5625 -0.46875 -1.65625 -0.46875q-1.140625 0 -1.671875 0.421875q-0.515625 0.421875 -0.515625 1.015625q0 0.515625 0.359375 0.84375q0.375 0.328125 1.90625 0.6875q1.546875 0.34375 2.109375 0.59375q0.84375 0.390625 1.234375 0.984375q0.390625 0.578125 0.390625 1.359375q0 0.75 -0.4375 1.4375q-0.421875 0.671875 -1.25 1.046875q-0.8125 0.359375 -1.828125 0.359375q-1.296875 0 -2.171875 -0.375q-0.875 -0.375 -1.375 -1.125q-0.5 -0.765625 -0.53125 -1.71875zm13.9053955 0.84375l1.203125 0.140625q-0.28125 1.0625 -1.0625 1.65625q-0.765625 0.578125 -1.96875 0.578125q-1.515625 0 -2.40625 -0.9375q-0.890625 -0.9375 -0.890625 -2.609375q0 -1.75 0.890625 -2.703125q0.90625 -0.96875 2.34375 -0.96875q1.390625 0 2.265625 0.9375q0.875 0.9375 0.875 2.65625q0 0.109375 0 0.3125l-5.15625 0q0.0625 1.140625 0.640625 1.75q0.578125 0.59375 1.4375 0.59375q0.65625 0 1.109375 -0.328125q0.453125 -0.34375 0.71875 -1.078125zm-3.84375 -1.90625l3.859375 0q-0.078125 -0.859375 -0.4375 -1.296875q-0.5625 -0.6875 -1.453125 -0.6875q-0.8125 0 -1.359375 0.546875q-0.546875 0.53125 -0.609375 1.4375zm6.5062256 4.125l0 -6.90625l1.0625 0l0 1.046875q0.40625 -0.734375 0.734375 -0.96875q0.34375 -0.234375 0.765625 -0.234375q0.59375 0 1.203125 0.375l-0.40625 1.078125q-0.4375 -0.25 -0.859375 -0.25q-0.390625 0 -0.703125 0.234375q-0.296875 0.234375 -0.421875 0.640625q-0.203125 0.625 -0.203125 1.359375l0 3.625l-1.171875 0zm6.3758545 0l-2.625 -6.90625l1.234375 0l1.484375 4.140625q0.234375 0.65625 0.4375 1.390625q0.15625 -0.546875 0.4375 -1.3125l1.53125 -4.21875l1.21875 0l-2.625 6.90625l-1.09375 0zm9.4765625 -2.21875l1.203125 0.140625q-0.28125 1.0625 -1.0625 1.65625q-0.765625 0.578125 -1.96875 0.578125q-1.515625 0 -2.40625 -0.9375q-0.890625 -0.9375 -0.890625 -2.609375q0 -1.75 0.890625 -2.703125q0.90625 -0.96875 2.34375 -0.96875q1.390625 0 2.265625 0.9375q0.875 0.9375 0.875 2.65625q0 0.109375 0 0.3125l-5.15625 0q0.0625 1.140625 0.640625 1.75q0.578125 0.59375 1.4375 0.59375q0.65625 0 1.109375 -0.328125q0.453125 -0.34375 0.71875 -1.078125zm-3.84375 -1.90625l3.859375 0q-0.078125 -0.859375 -0.4375 -1.296875q-0.5625 -0.6875 -1.453125 -0.6875q-0.8125 0 -1.359375 0.546875q-0.546875 0.53125 -0.609375 1.4375zm6.5062256 4.125l0 -6.90625l1.0625 0l0 1.046875q0.40625 -0.734375 0.734375 -0.96875q0.34375 -0.234375 0.765625 -0.234375q0.59375 0 1.203125 0.375l-0.40625 1.078125q-0.4375 -0.25 -0.859375 -0.25q-0.390625 0 -0.703125 0.234375q-0.296875 0.234375 -0.421875 0.640625q-0.203125 0.625 -0.203125 1.359375l0 3.625l-1.171875 0z" fill-rule="nonzero"/></g></svg>